<svg width="499.000000" height="469.000000" viewBox="0 0 499 469" fill="none" xmlns="http://www.w3.org/2000/svg" xmlns:xlink="http://www.w3.org/1999/xlink">
	<desc>
			Created with Pixso.
	</desc>
	<defs>
		<filter id="filter_3_244_dd" x="-0.542236" y="-0.714569" width="499.069458" height="469.714325" filterUnits="userSpaceOnUse" color-interpolation-filters="sRGB">
			<feFlood flood-opacity="0" result="BackgroundImageFix"/>
			<feColorMatrix in="SourceAlpha" type="matrix" values="0 0 0 0 0 0 0 0 0 0 0 0 0 0 0 0 0 0 127 0" result="hardAlpha"/>
			<feOffset dx="0" dy="0"/>
			<feGaussianBlur stdDeviation="6.66667"/>
			<feComposite in2="hardAlpha" operator="out" k2="-1" k3="1"/>
			<feColorMatrix type="matrix" values="0 0 0 0 0.027451 0 0 0 0 0.24706 0 0 0 0 0.17255 0 0 0 0.5 0"/>
			<feBlend mode="normal" in2="BackgroundImageFix" result="effect_dropShadow_1"/>
			<feBlend mode="normal" in="SourceGraphic" in2="effect_dropShadow_1" result="shape"/>
		</filter>
	</defs>
	<rect id="4960554 1" width="459.079987" height="442.010010" transform="translate(19.460022 6.989990)" fill="#FFFFFF" fill-opacity="0"/>
	<path id="Vector" d="M457.87 121.61C457.87 121.61 430.1 56.81 372.5 31.1C314.9 5.38 280.96 25.96 239.82 51.67C198.68 77.37 104.06 58.87 64.97 80.47C25.9 102.07 7.38 154.53 27.95 213.15C48.52 271.76 102 316 89.66 344.8C77.31 373.6 193.54 479.53 290.22 440.45C386.9 401.37 361.19 358.17 405.41 338.63C449.64 319.09 480.49 266.63 478.43 202.87C476.37 139.1 457.86 121.62 457.86 121.62L457.87 121.61Z" fill="#4BA285" fill-opacity="1.000000" fill-rule="nonzero"/>
	<g opacity="0.800000" filter="url(#filter_3_244_dd)">
		<path id="Vector" d="M457.87 121.61C457.87 121.61 430.1 56.81 372.5 31.1C314.9 5.38 280.96 25.96 239.82 51.67C198.68 77.37 104.06 58.87 64.97 80.47C25.9 102.07 7.38 154.53 27.95 213.15C48.52 271.76 102 316 89.66 344.8C77.31 373.6 193.54 479.53 290.22 440.45C386.9 401.37 361.19 358.17 405.41 338.63C449.64 319.09 480.49 266.63 478.43 202.87C476.37 139.1 457.86 121.62 457.86 121.62L457.87 121.61Z" fill="#FFFFFF" fill-opacity="1.000000" fill-rule="nonzero"/>
	</g>
	<path id="Vector" d="M89.52 33.75C91.77 34.7 93.35 36.93 93.35 39.53L93.35 56.42C93.35 59.89 90.54 62.69 87.08 62.69C83.61 62.69 80.81 59.88 80.81 56.42L80.81 39.53C80.81 36.93 82.39 34.7 84.64 33.75" stroke="#FF9797" stroke-opacity="1.000000" stroke-width="1.000000" stroke-linejoin="round" stroke-linecap="round"/>
	<path id="Vector" d="M80.81 56.43L80.81 47.98L93.36 47.98L93.36 56.43C93.36 59.9 90.55 62.7 87.09 62.7L87.08 62.7C83.61 62.7 80.81 59.89 80.81 56.43Z" stroke="#FF9797" stroke-opacity="1.000000" stroke-width="1.000000" stroke-linejoin="round"/>
	<path id="Vector" d="M73.58 31.34L64.36 38.75C61.66 40.91 57.71 40.49 55.54 37.78C53.37 35.08 53.8 31.13 56.51 28.96L69.69 18.39C72.39 16.21 76.33 16.65 78.51 19.36C80.68 22.06 80.25 26.01 77.54 28.18L76.48 29.03" stroke="#FF9797" stroke-opacity="1.000000" stroke-width="1.000000" stroke-linejoin="round" stroke-linecap="round"/>
	<path id="Vector" d="M56.51 28.96L63.1 23.67L70.94 33.46L64.36 38.75C61.66 40.91 57.71 40.49 55.54 37.78C53.37 35.08 53.8 31.13 56.51 28.96Z" stroke="#FF9797" stroke-opacity="1.000000" stroke-width="1.000000" stroke-linejoin="round"/>
	<path id="Vector" d="M404.46 309.72C399.99 310.97 396.67 314.95 396.4 319.75L382.68 319.75C382.37 317.23 380.24 315.26 377.64 315.26C374.82 315.26 372.53 317.56 372.53 320.38C372.53 323.2 374.82 325.49 377.64 325.49C379.62 325.49 381.31 324.35 382.16 322.71L396.62 322.71C397.69 327.7 402.12 331.45 407.44 331.45C410.59 331.45 413.43 330.13 415.45 328.01L422.54 333.52" stroke="#FF9797" stroke-opacity="1.000000" stroke-width="1.000000" stroke-linejoin="round" stroke-linecap="round"/>
	<path id="Vector" d="M426.39 336.52L435.03 343.24C434.81 343.81 434.68 344.42 434.68 345.07C434.68 347.89 436.97 350.18 439.79 350.18C442.61 350.18 444.9 347.89 444.9 345.07C444.9 342.25 442.61 339.96 439.79 339.96C438.69 339.96 437.68 340.31 436.85 340.9L417.19 325.6C418.03 324.04 418.51 322.26 418.51 320.37C418.51 318.04 417.79 315.9 416.57 314.12L428.59 298.73C429.16 298.95 429.78 299.07 430.43 299.07C433.25 299.07 435.54 296.79 435.54 293.97C435.54 291.15 433.25 288.85 430.43 288.85C427.61 288.85 425.32 291.15 425.32 293.97C425.32 295.06 425.67 296.07 426.26 296.9L414.55 311.88C412.63 310.26 410.15 309.29 407.44 309.29" stroke="#FF9797" stroke-opacity="1.000000" stroke-width="1.000000" stroke-linejoin="round" stroke-linecap="round"/>
	<path id="Vector" d="M254.31 36.73L254.31 83.71C254.31 87.84 250.97 91.18 246.84 91.18C242.71 91.18 239.37 87.84 239.37 83.71L239.37 23.39L254.31 23.39L254.31 33.96" stroke="#FF9797" stroke-opacity="1.000000" stroke-width="1.000000" stroke-linejoin="round" stroke-linecap="round"/>
	<path id="Vector" d="M239.37 83.71L239.37 45.5L254.31 45.5L254.31 83.71C254.31 87.84 250.97 91.18 246.84 91.18C242.71 91.18 239.37 87.84 239.37 83.71Z" stroke="#FF9797" stroke-opacity="1.000000" stroke-width="1.000000" stroke-linejoin="round"/>
	<path id="Vector" d="M254.31 23.39L256.45 23.39L256.45 17.95L237.24 17.95L237.24 23.39L239.37 23.39" stroke="#FF9797" stroke-opacity="1.000000" stroke-width="1.000000" stroke-linejoin="round" stroke-linecap="round"/>
	<path id="Vector" d="M216.73 66.36L216.73 23.39L231.67 23.39L231.67 83.71C231.67 87.84 228.32 91.18 224.2 91.18C220.08 91.18 216.73 87.84 216.73 83.71L216.73 70.32" stroke="#FF9797" stroke-opacity="1.000000" stroke-width="1.000000" stroke-linejoin="round" stroke-linecap="round"/>
	<path id="Vector" d="M216.72 66.36L216.72 45.5L231.66 45.5L231.66 83.71C231.66 87.84 228.32 91.18 224.19 91.18C220.06 91.18 216.72 87.84 216.72 83.71L216.72 71.5" stroke="#FF9797" stroke-opacity="1.000000" stroke-width="1.000000" stroke-linejoin="round" stroke-linecap="round"/>
	<path id="Vector" d="M231.67 23.39L233.8 23.39L233.8 17.95L214.59 17.95L214.59 23.39L216.73 23.39" stroke="#FF9797" stroke-opacity="1.000000" stroke-width="1.000000" stroke-linejoin="round" stroke-linecap="round"/>
	<path id="Vector" d="M92.98 309.65C87.17 311.7 82.71 316.62 81.28 322.7C79.39 314.63 72.16 308.6 63.51 308.6C53.42 308.6 45.24 316.79 45.24 326.88C45.24 331.37 47.19 335.36 49.98 339.01L69.67 339.01L75.54 324.92C75.74 324.45 76.22 324.16 76.72 324.18C77.23 324.21 77.67 324.54 77.82 325.04L84.92 348.48L90.34 331.21C90.5 330.71 90.95 330.37 91.48 330.36C92 330.4 92.47 330.68 92.64 331.17L95.65 339.84L111.89 339.84C115 336.18 117.33 332.07 117.33 326.88C117.33 316.79 109.15 308.6 99.06 308.6" stroke="#FF9797" stroke-opacity="1.000000" stroke-width="1.000000" stroke-linejoin="round" stroke-linecap="round"/>
	<path id="Vector" d="M71.98 360.83C75.11 363.96 78.25 367.08 81.46 370.12C88.79 362.87 96.17 355.67 103.45 348.37C105.46 346.35 107.65 344.36 109.68 342.26L94.79 342.26C94.28 342.26 93.82 341.93 93.65 341.45L91.55 335.43L86.05 352.96C85.89 353.46 85.42 353.81 84.9 353.81C84.37 353.81 83.9 353.46 83.75 352.95L76.49 328.98L71.6 340.7C71.41 341.15 70.97 341.44 70.48 341.44L51.98 341.44C55.96 345.89 60.92 349.82 64.62 353.49C66.25 355.1 67.89 356.73 69.51 358.36" stroke="#FF9797" stroke-opacity="1.000000" stroke-width="1.000000" stroke-linejoin="round" stroke-linecap="round"/>
	<path id="Vector" d="M456.89 67.69L455.67 65.58L461.7 62.14L462.92 64.26" stroke="#FF9797" stroke-opacity="1.000000" stroke-width="1.000000" stroke-linejoin="round" stroke-linecap="round"/>
	<path id="Vector" d="M463.04 78.49L459.32 71.97L459.32 71.96L465.35 68.51L465.36 68.51L472.45 80.96L466.42 84.4L464.72 81.43" stroke="#FF9797" stroke-opacity="1.000000" stroke-width="1.000000" stroke-linejoin="round" stroke-linecap="round"/>
	<path id="Vector" d="M466.81 88.9L464.79 85.35L474.09 80.04L476.12 83.59L466.81 88.9Z" stroke="#FF9797" stroke-opacity="1.000000" stroke-width="1.000000" stroke-linejoin="round"/>
	<path id="Vector" d="M461.68 51.79L450.94 32.96" stroke="#FF9797" stroke-opacity="1.000000" stroke-width="1.000000" stroke-linejoin="round" stroke-linecap="round"/>
	<path id="Vector" d="M467.35 61.73L463.51 55" stroke="#FF9797" stroke-opacity="1.000000" stroke-width="1.000000" stroke-linejoin="round" stroke-linecap="round"/>
	<path id="Vector" d="M440.94 50.11L436.02 41.48" stroke="#FF9797" stroke-opacity="1.000000" stroke-width="1.000000" stroke-linejoin="round" stroke-linecap="round"/>
	<path id="Vector" d="M452.44 70.25L442.7 53.18" stroke="#FF9797" stroke-opacity="1.000000" stroke-width="1.000000" stroke-linejoin="round" stroke-linecap="round"/>
	<path id="Vector" d="M454.88 74.5L459.32 71.97L459.32 71.96L465.35 68.51L465.36 68.51L469.79 65.99" stroke="#FF9797" stroke-opacity="1.000000" stroke-width="1.000000" stroke-linejoin="round" stroke-linecap="round"/>
	<path id="Vector" d="M437.97 40.36L448.12 58.12L450.61 56.7L456.65 53.25L459.12 51.83L448.99 34.08" stroke="#FF9797" stroke-opacity="1.000000" stroke-width="1.000000" stroke-linejoin="round" stroke-linecap="round"/>
	<path id="Vector" d="M462.92 64.26L461.7 62.14L456.65 53.25" stroke="#FF9797" stroke-opacity="1.000000" stroke-width="1.000000" stroke-linejoin="round" stroke-linecap="round"/>
	<path id="Vector" d="M450.61 56.7L455.67 65.58L456.89 67.69" stroke="#FF9797" stroke-opacity="1.000000" stroke-width="1.000000" stroke-linejoin="round" stroke-linecap="round"/>
	<path id="Vector" d="M459.32 71.96L454.88 74.5L453.81 75.11L451.38 70.85L452.44 70.25L456.89 67.69L462.92 64.26L467.35 61.73L468.42 61.12L470.86 65.37L469.79 65.99L465.36 68.51L465.35 68.51" stroke="#FF9797" stroke-opacity="1.000000" stroke-width="1.000000" stroke-linejoin="round" stroke-linecap="round"/>
	<path id="Vector" d="M440.39 27.68L434.18 31.23L436.62 35.5" stroke="#FF9797" stroke-opacity="1.000000" stroke-width="1.000000" stroke-linejoin="round" stroke-linecap="round"/>
	<path id="Vector" d="M445.5 30.43L443.06 26.16" stroke="#FF9797" stroke-opacity="1.000000" stroke-width="1.000000" stroke-linejoin="round" stroke-linecap="round"/>
	<path id="Vector" d="M448.99 34.08L450.94 32.96L452.01 32.34L449.58 28.1L445.5 30.43L436.62 35.5L432.53 37.83L434.96 42.08L436.02 41.48L437.97 40.36L448.99 34.08Z" stroke="#FF9797" stroke-opacity="1.000000" stroke-width="1.000000" stroke-linejoin="round"/>
	<path id="Vector" d="M438.04 28.09L426.28 7.48" stroke="#FF9797" stroke-opacity="1.000000" stroke-width="1.000000" stroke-linejoin="round" stroke-linecap="round"/>
	<path id="Vector" d="M463.6 167.35C463.6 217.13 423.24 257.49 373.46 257.49C323.67 257.49 283.32 217.13 283.32 167.35C283.32 117.56 323.67 77.21 373.46 77.21C423.24 77.21 463.6 117.56 463.6 167.35Z" fill="#4BA285" fill-opacity="1.000000" fill-rule="evenodd"/>
	<path id="Vector" d="M324.23 264.13L324.54 192.05C324.54 192.05 311.81 193.81 309.68 194.11C307.54 194.41 306.56 191.96 300.47 185.87C294.38 179.78 295.29 163.03 303.21 157.53C311.13 152.05 328.49 131.96 329.71 130.74C330.93 129.52 339.46 130.74 342.81 131.35C346.16 131.96 352.25 135.31 353.77 135.61C355.29 135.91 366.56 137.74 366.56 137.74C366.56 137.74 404.63 144.75 407.98 145.35C411.33 145.96 426.25 154.78 429.91 155.39C433.56 156 437.83 161.8 438.44 164.54C439.05 167.28 444.84 216.01 447.27 219.36C449.71 222.71 457.93 265.03 457.93 265.03M324.71 264.11L324.73 264.13C324.72 264.41 324.5 264.63 324.22 264.63C323.94 264.62 323.72 264.4 323.73 264.12L323.75 264.1L324.71 264.11ZM458.39 264.91L458.42 264.93C458.47 265.2 458.3 265.46 458.02 265.52C457.75 265.57 457.49 265.4 457.43 265.12L457.45 265.1L458.39 264.91Z" fill="#FFFFFF" fill-opacity="1.000000" fill-rule="nonzero"/>
	<path id="Vector" d="M324.23 264.13L324.54 192.05C324.54 192.05 311.81 193.81 309.68 194.11C307.54 194.41 306.56 191.96 300.47 185.87C294.38 179.78 295.29 163.03 303.21 157.53C311.13 152.05 328.49 131.96 329.71 130.74C330.93 129.52 339.46 130.74 342.81 131.35C346.16 131.96 352.25 135.31 353.77 135.61C355.29 135.91 366.56 137.74 366.56 137.74C366.56 137.74 404.63 144.75 407.98 145.35C411.33 145.96 426.25 154.78 429.91 155.39C433.56 156 437.83 161.8 438.44 164.54C439.05 167.28 444.84 216.01 447.27 219.36C449.71 222.71 457.93 265.03 457.93 265.03" stroke="#073F2C" stroke-opacity="1.000000" stroke-width="1.000000" stroke-linejoin="round" stroke-linecap="round"/>
	<path id="Vector" d="M393.93 161.64L397.7 161.64L408.67 166.09L396.33 155.12L393.93 161.64Z" fill="#073F2C" fill-opacity="1.000000" fill-rule="nonzero"/>
	<path id="Vector" d="M397.7 161.64L408.67 166.09L396.33 155.12L393.93 161.64L397.7 161.64Z" stroke="#073F2C" stroke-opacity="1.000000" stroke-width="1.000000" stroke-linejoin="round"/>
	<path id="Vector" d="M370.29 162.66L385.02 160.61L379.88 153.07L370.29 162.66Z" fill="#073F2C" fill-opacity="1.000000" fill-rule="nonzero"/>
	<path id="Vector" d="M385.02 160.61L379.88 153.07L370.29 162.66L385.02 160.61Z" stroke="#073F2C" stroke-opacity="1.000000" stroke-width="1.000000" stroke-linejoin="round"/>
	<path id="Vector" d="M333.21 144.99C333.21 144.99 334.86 167.28 332.38 176.77C329.9 186.26 327.84 188.74 327.84 188.74" stroke="#073F2C" stroke-opacity="1.000000" stroke-width="1.000000" stroke-linejoin="round" stroke-linecap="round"/>
	<path id="Vector" d="M331.5 196.87C331.13 198.15 330.74 199.44 330.32 200.72M331.03 196.75L331.02 196.73C331.09 196.46 331.37 196.31 331.63 196.39C331.9 196.46 332.05 196.74 331.98 197L331.95 197.02L331.03 196.75ZM330.78 200.85L330.79 200.87C330.7 201.14 330.43 201.28 330.16 201.19C329.89 201.1 329.75 200.83 329.84 200.56L329.87 200.55L330.78 200.85Z" fill="#FFFFFF" fill-opacity="1.000000" fill-rule="nonzero"/>
	<path id="Vector" d="M331.5 196.87C331.13 198.15 330.74 199.44 330.32 200.72" stroke="#073F2C" stroke-opacity="1.000000" stroke-width="1.000000" stroke-linejoin="round" stroke-linecap="round"/>
	<path id="Vector" d="M336.92 160.25C336.92 160.25 336.92 175.71 332.51 193.11M336.44 160.28L336.42 160.25C336.42 159.98 336.64 159.75 336.92 159.75C337.2 159.75 337.42 159.98 337.42 160.25L337.4 160.28L336.44 160.28ZM332.98 193.2L332.99 193.23C332.92 193.5 332.65 193.66 332.38 193.59C332.11 193.52 331.95 193.25 332.02 192.98L332.05 192.97L332.98 193.2Z" fill="#FFFFFF" fill-opacity="1.000000" fill-rule="nonzero"/>
	<path id="Vector" d="M336.92 160.25C336.92 160.25 336.92 175.71 332.51 193.11" stroke="#073F2C" stroke-opacity="1.000000" stroke-width="1.000000" stroke-linejoin="round" stroke-linecap="round"/>
	<path id="Vector" d="M433.72 260.07C433.72 260.07 427.78 233.69 428.39 230.95C429 228.21 430.83 178.87 430.83 178.87" stroke="#073F2C" stroke-opacity="1.000000" stroke-width="1.000000" stroke-linejoin="round" stroke-linecap="round"/>
	<path id="Vector" d="M357.5 151.47C358.05 152.98 358.63 154.6 359.25 156.33" stroke="#073F2C" stroke-opacity="1.000000" stroke-width="1.000000" stroke-linejoin="round" stroke-linecap="round"/>
	<path id="Vector" d="M351.94 136.83C351.94 136.83 353.6 140.88 356.48 148.69" stroke="#073F2C" stroke-opacity="1.000000" stroke-width="1.000000" stroke-linejoin="round" stroke-linecap="round"/>
	<path id="Vector" d="M364.35 180.46C364.67 182.19 364.91 183.9 365.04 185.57" stroke="#073F2C" stroke-opacity="1.000000" stroke-width="1.000000" stroke-linejoin="round" stroke-linecap="round"/>
	<path id="Vector" d="M353.77 151.14C353.77 151.14 360.37 163.75 363.52 176.63" stroke="#073F2C" stroke-opacity="1.000000" stroke-width="1.000000" stroke-linejoin="round" stroke-linecap="round"/>
	<path id="Vector" d="M389.83 168.46C389.83 168.46 393.37 201.4 393.37 205.97C393.37 210.54 396 261.59 396 261.59" stroke="#073F2C" stroke-opacity="1.000000" stroke-width="1.000000" stroke-linejoin="round" stroke-linecap="round"/>
	<path id="Vector" d="M426.56 214.94L405.85 212.96L405.85 180.61L426.56 182.6L426.56 214.94Z" fill="#FFFFFF" fill-opacity="1.000000" fill-rule="nonzero"/>
	<path id="Vector" d="M405.85 212.96L405.85 180.61L426.56 182.6L426.56 214.94L405.85 212.96Z" stroke="#073F2C" stroke-opacity="1.000000" stroke-width="1.000000" stroke-linejoin="round"/>
	<path id="Vector" d="M418.34 183.59L413.16 183.28L413.16 173.22L418.34 173.54L418.34 183.59Z" fill="#4BA285" fill-opacity="1.000000" fill-rule="nonzero"/>
	<path id="Vector" d="M413.16 183.28L413.16 173.22L418.34 173.54L418.34 183.59L413.16 183.28Z" stroke="#073F2C" stroke-opacity="1.000000" stroke-width="1.000000" stroke-linejoin="round"/>
	<path id="Vector" d="M373.33 130.05C373.33 130.05 371.01 129.78 370.49 130.57C369.97 131.35 364.05 138.05 364.05 138.05C364.05 138.05 364.82 141.66 364.82 148.36C364.82 155.06 367.91 165.37 367.91 165.37L380.54 157.12C380.54 157.12 386.98 155.32 388.79 154.8C390.59 154.28 393.69 154.8 393.69 154.8C393.69 154.8 411.73 170.01 412.76 169.49C413.79 168.97 409.67 151.96 406.83 144.49C403.99 137 396 132.89 396 132.89C396 132.89 377.7 129.53 373.32 130.05L373.33 130.05Z" fill="#FFFFFF" fill-opacity="1.000000" fill-rule="nonzero"/>
	<path id="Vector" d="M370.49 130.57C369.97 131.35 364.05 138.05 364.05 138.05C364.05 138.05 364.82 141.66 364.82 148.36C364.82 155.06 367.91 165.37 367.91 165.37L380.54 157.12C380.54 157.12 386.98 155.32 388.79 154.8C390.59 154.28 393.69 154.8 393.69 154.8C393.69 154.8 411.73 170.01 412.76 169.49C413.79 168.97 409.67 151.96 406.83 144.49C403.99 137 396 132.89 396 132.89C396 132.89 377.7 129.53 373.32 130.05L373.33 130.05C373.33 130.05 371.01 129.78 370.49 130.57Z" stroke="#073F2C" stroke-opacity="1.000000" stroke-width="1.000000" stroke-linejoin="round"/>
	<path id="Vector" d="M369.98 98.6C369.98 98.6 362.76 99.63 357.09 103.76C351.42 107.89 356.32 122.32 363.28 125.93C370.24 129.53 375.14 128.5 377.97 122.06C380.81 115.62 379.52 102.47 377.71 100.41C375.91 98.35 369.98 98.61 369.98 98.61L369.98 98.6Z" fill="#073F2C" fill-opacity="1.000000" fill-rule="nonzero"/>
	<path id="Vector" d="M376.16 104.53L373.58 132.63C373.58 132.63 375.9 140.88 380.8 151.7C385.7 162.53 389.82 168.45 389.82 168.45C389.82 168.45 396.01 157.11 397.55 153.24C399.1 149.37 400.64 142.16 400.64 142.16L404.51 125.41C404.51 125.41 397.55 123.61 389.04 117.16C380.53 110.72 376.15 104.53 376.15 104.53L376.16 104.53Z" fill="#FFFFFF" fill-opacity="1.000000" fill-rule="nonzero"/>
	<path id="Vector" d="M373.58 132.63C373.58 132.63 375.9 140.88 380.8 151.7C385.7 162.53 389.82 168.45 389.82 168.45C389.82 168.45 396.01 157.11 397.55 153.24C399.1 149.37 400.64 142.16 400.64 142.16L404.51 125.41C404.51 125.41 397.55 123.61 389.04 117.16C380.53 110.72 376.15 104.53 376.15 104.53L376.16 104.53L373.58 132.63Z" stroke="#073F2C" stroke-opacity="1.000000" stroke-width="1.000000" stroke-linejoin="round"/>
	<path id="Vector" d="M404.52 125.41C404.52 125.41 397.56 123.61 389.05 117.16C386.59 115.3 384.49 113.46 382.72 111.78L382.72 123.3C382.72 123.3 389.22 134.67 395.71 137.92C397.53 138.83 399.45 139.28 401.26 139.48L404.51 125.41L404.52 125.41Z" fill="#073F2C" fill-opacity="1.000000" fill-rule="nonzero"/>
	<path id="Vector" d="M422.3 100.15C422.3 100.15 424.36 98.09 424.62 102.47C424.88 106.85 422.04 110.46 420.24 112.01C418.44 113.56 417.66 114.07 417.66 114.07L422.3 100.15Z" fill="#FFFFFF" fill-opacity="1.000000" fill-rule="nonzero"/>
	<path id="Vector" d="M424.62 102.47C424.88 106.85 422.04 110.46 420.24 112.01C418.44 113.56 417.66 114.07 417.66 114.07L422.3 100.15C422.3 100.15 424.36 98.09 424.62 102.47Z" stroke="#073F2C" stroke-opacity="1.000000" stroke-width="1.000000" stroke-linejoin="round"/>
	<path id="Vector" d="M404.52 59.66C404.52 59.66 394.56 57.67 385.4 64.44C376.24 71.21 375.44 87.55 375.44 87.55C375.44 87.55 372.25 84.76 370.26 88.35C368.27 91.94 368.27 101.1 369.86 101.89C371.45 102.69 373.45 103.48 373.45 103.48C373.45 103.48 375.84 115.43 378.23 119.02C380.62 122.61 389.38 131.77 394.56 131.77C399.74 131.77 408.5 128.98 412.49 123.8C416.47 118.62 419.26 112.25 420.86 107.87C422.45 103.49 425.24 82.37 425.24 82.37C425.24 82.37 426.44 72.81 418.87 66.04C411.3 59.27 404.53 59.67 404.53 59.67L404.52 59.66Z" fill="#FFFFFF" fill-opacity="1.000000" fill-rule="nonzero"/>
	<path id="Vector" d="M385.4 64.44C376.24 71.21 375.44 87.55 375.44 87.55C375.44 87.55 372.25 84.76 370.26 88.35C368.27 91.94 368.27 101.1 369.86 101.89C371.45 102.69 373.45 103.48 373.45 103.48C373.45 103.48 375.84 115.43 378.23 119.02C380.62 122.61 389.38 131.77 394.56 131.77C399.74 131.77 408.5 128.98 412.49 123.8C416.47 118.62 419.26 112.25 420.86 107.87C422.45 103.49 425.24 82.37 425.24 82.37C425.24 82.37 426.44 72.81 418.87 66.04C411.3 59.27 404.53 59.67 404.53 59.67L404.52 59.66C404.52 59.66 394.56 57.67 385.4 64.44Z" stroke="#073F2C" stroke-opacity="1.000000" stroke-width="1.000000" stroke-linejoin="round"/>
	<path id="Vector" d="M378.23 119.02C380.62 122.61 389.38 131.77 394.56 131.77C399.74 131.77 408.5 128.98 412.49 123.8C416.47 118.62 419.26 112.25 420.86 107.87C421.24 106.82 421.7 104.79 422.16 102.33C421.12 101.3 414.07 94.58 405.04 92.68C395.24 90.62 377.46 89.07 377.46 89.07L375.45 87.55L373.62 104.28C374.2 107.01 376.22 116 378.24 119.02L378.23 119.02Z" fill="#4BA285" fill-opacity="1.000000" fill-rule="nonzero"/>
	<path id="Vector" d="M394.56 131.77C399.74 131.77 408.5 128.98 412.49 123.8C416.47 118.62 419.26 112.25 420.86 107.87C421.24 106.82 421.7 104.79 422.16 102.33C421.12 101.3 414.07 94.58 405.04 92.68C395.24 90.62 377.46 89.07 377.46 89.07L375.45 87.55L373.62 104.28C374.2 107.01 376.22 116 378.24 119.02L378.23 119.02C380.62 122.61 389.38 131.77 394.56 131.77Z" stroke="#073F2C" stroke-opacity="1.000000" stroke-width="1.000000" stroke-linejoin="round"/>
	<path id="Vector" d="M408.64 93.96C408.64 93.96 410.19 86.23 410.96 84.16C411.73 82.1 416.89 80.29 420.76 85.96" stroke="#073F2C" stroke-opacity="1.000000" stroke-width="1.000000" stroke-linejoin="round" stroke-linecap="round"/>
	<path id="Vector" d="M399.88 79.01C399.88 79.01 394.72 72.57 386.48 78.24" stroke="#073F2C" stroke-opacity="1.000000" stroke-width="1.000000" stroke-linejoin="round" stroke-linecap="round"/>
	<path id="Vector" d="M392.1 84.64C391.82 85.67 391.03 86.35 390.34 86.16C389.65 85.97 389.33 84.98 389.61 83.95C389.89 82.92 390.68 82.24 391.37 82.43C392.06 82.62 392.38 83.61 392.1 84.64Z" fill="#073F2C" fill-opacity="1.000000" fill-rule="nonzero"/>
	<path id="Vector" d="M414.78 90.12C414.5 91.15 413.71 91.83 413.02 91.64C412.33 91.45 412.01 90.46 412.29 89.43C412.57 88.4 413.36 87.72 414.05 87.91C414.74 88.1 415.06 89.09 414.78 90.12Z" fill="#073F2C" fill-opacity="1.000000" fill-rule="nonzero"/>
	<path id="Vector" d="M375.44 87.55C375.44 87.55 376.94 88.04 377.71 86.75C378.48 85.46 376.94 80.82 382.61 75.15C388.28 69.48 394.73 68.71 397.82 66.12C400.91 63.55 401.43 62.26 399.37 59.69C397.31 57.11 394.21 52.73 382.87 59.17C371.53 65.61 367.4 69.74 369.21 75.41C371.01 81.08 373.59 84.43 373.59 84.43L375.45 87.55L375.44 87.55Z" fill="#073F2C" fill-opacity="1.000000" fill-rule="nonzero"/>
	<path id="Vector" d="M396.78 57.62C396.78 57.62 399.1 63.03 403.22 65.1C407.34 67.16 412.76 67.94 419.2 71.8C425.64 75.66 424.36 87.27 424.36 87.27C424.36 87.27 433.12 91.65 436.73 85.21C440.34 78.76 443.69 67.94 429.51 59.95C415.33 51.96 404.76 42.42 396.77 57.63L396.78 57.62Z" fill="#073F2C" fill-opacity="1.000000" fill-rule="nonzero"/>
	<path id="Vector" d="M356.51 42.72L356.51 79.43C356.51 81.53 354.8 83.23 352.71 83.23L352.7 83.23C350.6 83.23 348.9 81.51 348.9 79.43L348.9 42.72L356.51 42.72Z" fill="#FFFFFF" fill-opacity="1.000000" fill-rule="nonzero"/>
	<path id="Vector" d="M356.51 79.43C356.51 81.53 354.8 83.23 352.71 83.23L352.7 83.23C350.6 83.23 348.9 81.51 348.9 79.43L348.9 42.72L356.51 42.72L356.51 79.43Z" stroke="#073F2C" stroke-opacity="1.000000" stroke-width="1.000000" stroke-linejoin="round"/>
	<path id="Vector" d="M356.51 62.21L356.51 79.42C356.51 81.51 354.8 83.22 352.71 83.22L352.7 83.22C350.6 83.22 348.9 81.51 348.9 79.42L348.9 62.21L356.51 62.21Z" fill="#4BA285" fill-opacity="1.000000" fill-rule="nonzero"/>
	<path id="Vector" d="M356.51 79.42C356.51 81.51 354.8 83.22 352.71 83.22L352.7 83.22C350.6 83.22 348.9 81.51 348.9 79.42L348.9 62.21L356.51 62.21L356.51 79.42Z" stroke="#073F2C" stroke-opacity="1.000000" stroke-width="1.000000" stroke-linejoin="round"/>
	<path id="Vector" d="M357.73 40.89L347.68 40.89L347.68 43.94L357.73 43.94L357.73 40.89Z" fill="#FFFFFF" fill-opacity="1.000000" fill-rule="nonzero"/>
	<path id="Vector" d="M357.73 40.89L357.73 43.94L347.68 43.94L347.68 40.89L357.73 40.89Z" stroke="#073F2C" stroke-opacity="1.000000" stroke-width="1.000000" stroke-linejoin="round"/>
	<path id="Vector" d="M333.06 115.82C333.06 115.82 333.06 114.91 328.8 111.86C324.54 108.81 308.39 108.51 305.04 112.47C301.69 116.43 313.57 127.39 316.92 128.92C320.26 130.44 326.35 127.7 328.19 125.57C330.02 123.44 333.06 115.82 333.06 115.82Z" fill="#FFFFFF" fill-opacity="1.000000" fill-rule="nonzero"/>
	<path id="Vector" d="M328.8 111.86C324.54 108.81 308.39 108.51 305.04 112.47C301.69 116.43 313.57 127.39 316.92 128.92C320.26 130.44 326.35 127.7 328.19 125.57C330.02 123.44 333.06 115.82 333.06 115.82C333.06 115.82 333.06 114.91 328.8 111.86Z" stroke="#073F2C" stroke-opacity="1.000000" stroke-width="1.000000" stroke-linejoin="round"/>
	<path id="Vector" d="M311.13 92.67L308.07 115.51C308.07 115.51 313.87 123.43 319.04 123.73C324.22 124.03 328.79 119.16 328.79 119.16L330.01 96.32C330.01 96.32 318.13 96.02 311.13 92.67Z" fill="#FFFFFF" fill-opacity="1.000000" fill-rule="nonzero"/>
	<path id="Vector" d="M308.07 115.51C308.07 115.51 313.87 123.43 319.04 123.73C324.22 124.03 328.79 119.16 328.79 119.16L330.01 96.32C330.01 96.32 318.13 96.02 311.13 92.67L308.07 115.51Z" stroke="#073F2C" stroke-opacity="1.000000" stroke-width="1.000000" stroke-linejoin="round"/>
	<path id="Vector" d="M314.48 77.44C314.48 77.44 315.09 62.52 315.7 56.42C316.31 50.33 318.14 46.06 319.04 46.06C319.96 46.06 331.23 38.14 331.23 38.14C331.23 38.14 349.5 39.36 351.33 39.36C353.16 39.36 356.81 40.58 356.51 42.41L356.21 44.24C356.21 44.24 356.51 46.37 356.21 47.29C355.91 48.2 354.99 48.81 354.99 48.81C354.99 48.81 355.6 50.33 353.77 51.25C351.94 52.16 344.33 56.12 344.33 56.12C344.33 56.12 340.68 63.73 339.46 68C338.24 72.26 333.37 76.83 333.37 76.83C333.37 76.83 333.67 81.08 333.67 83.84C333.67 86.59 332.15 90.85 332.15 90.85C332.15 90.85 332.45 94.81 332.15 95.72C331.85 96.63 330.93 97.85 330.02 97.85C329.11 97.85 322.41 99.07 319.06 98.46C315.71 97.85 310.84 93.89 310.84 93.89L312.35 87.8L312.35 82.93C312.35 81.1 314.49 77.44 314.49 77.44L314.48 77.44Z" fill="#4BA285" fill-opacity="1.000000" fill-rule="nonzero"/>
	<path id="Vector" d="M315.7 56.42C316.31 50.33 318.14 46.06 319.04 46.06C319.96 46.06 331.23 38.14 331.23 38.14C331.23 38.14 349.5 39.36 351.33 39.36C353.16 39.36 356.81 40.58 356.51 42.41L356.21 44.24C356.21 44.24 356.51 46.37 356.21 47.29C355.91 48.2 354.99 48.81 354.99 48.81C354.99 48.81 355.6 50.33 353.77 51.25C351.94 52.16 344.33 56.12 344.33 56.12C344.33 56.12 340.68 63.73 339.46 68C338.24 72.26 333.37 76.83 333.37 76.83C333.37 76.83 333.67 81.08 333.67 83.84C333.67 86.59 332.15 90.85 332.15 90.85C332.15 90.85 332.45 94.81 332.15 95.72C331.85 96.63 330.93 97.85 330.02 97.85C329.11 97.85 322.41 99.07 319.06 98.46C315.71 97.85 310.84 93.89 310.84 93.89L312.35 87.8L312.35 82.93C312.35 81.1 314.49 77.44 314.49 77.44L314.48 77.44C314.48 77.44 315.09 62.52 315.7 56.42Z" stroke="#073F2C" stroke-opacity="1.000000" stroke-width="1.000000" stroke-linejoin="round"/>
	<path id="Vector" d="M324.84 76.83C324.84 76.83 331.24 74.39 331.85 70.43C332.46 66.47 335.5 56.42 335.5 56.42L344.33 56.12" stroke="#073F2C" stroke-opacity="1.000000" stroke-width="1.000000" stroke-linejoin="round" stroke-linecap="round"/>
	<path id="Vector" d="M328.19 52.16C328.19 52.16 336.11 49.42 338.24 49.42C340.37 49.42 354.99 48.81 354.99 48.81" stroke="#073F2C" stroke-opacity="1.000000" stroke-width="1.000000" stroke-linejoin="round" stroke-linecap="round"/>
	<path id="Vector" d="M327.88 45.16C327.88 45.16 333.67 43.64 339.15 43.64C344.63 43.64 356.21 44.25 356.21 44.25" stroke="#073F2C" stroke-opacity="1.000000" stroke-width="1.000000" stroke-linejoin="round" stroke-linecap="round"/>
	<path id="Vector" d="M314.18 89.32C314.18 89.32 318.14 93.58 326.67 92.67" stroke="#073F2C" stroke-opacity="1.000000" stroke-width="1.000000" stroke-linejoin="round" stroke-linecap="round"/>
	<path id="Vector" d="M331.54 88.1C331.54 88.1 330.02 89.01 323.01 89.01" stroke="#073F2C" stroke-opacity="1.000000" stroke-width="1.000000" stroke-linejoin="round" stroke-linecap="round"/>
	<path id="Vector" d="M308.09 115.51L305.04 112.46C305.04 112.46 288.29 175.81 287.98 180.38C287.68 184.95 294.68 192.56 298.64 194.39C302.6 196.22 315.7 194.69 319.96 192.56C324.22 190.43 326.97 181.9 329.4 173.98C331.84 166.06 329.1 152.05 329.7 147.78C330.31 143.53 333.05 115.81 333.05 115.81L328.79 119.16C328.79 119.16 316.91 118.86 308.07 115.51L308.09 115.51Z" fill="#FFFFFF" fill-opacity="1.000000" fill-rule="nonzero"/>
	<path id="Vector" d="M305.04 112.46C305.04 112.46 288.29 175.81 287.98 180.38C287.68 184.95 294.68 192.56 298.64 194.39C302.6 196.22 315.7 194.69 319.96 192.56C324.22 190.43 326.97 181.9 329.4 173.98C331.84 166.06 329.1 152.05 329.7 147.78C330.31 143.53 333.05 115.81 333.05 115.81L328.79 119.16C328.79 119.16 316.91 118.86 308.07 115.51L308.09 115.51L305.04 112.46Z" stroke="#073F2C" stroke-opacity="1.000000" stroke-width="1.000000" stroke-linejoin="round"/>
	<path id="Vector" d="M309.99 264.6L469.19 264.6" stroke="#073F2C" stroke-opacity="1.000000" stroke-width="1.000000" stroke-linejoin="round" stroke-linecap="round"/>
	<path id="Vector" d="M229.52 165.66C229.52 215.44 189.16 255.8 139.38 255.8C89.59 255.8 49.24 215.44 49.24 165.66C49.24 115.87 89.59 75.51 139.38 75.51C189.16 75.51 229.52 115.87 229.52 165.66Z" fill="#4BA285" fill-opacity="1.000000" fill-rule="evenodd"/>
	<path id="Vector" d="M77.1 260.44L79.1 214.75C79.1 214.75 71.43 238.43 67.43 244.43C63.43 250.43 60.43 252.77 54.76 251.77C49.09 250.77 38.41 233.43 38.41 224.75C38.41 216.07 47.43 194.07 49.43 189.06C51.43 184.05 62.1 141.7 63.44 139.37C64.76 137.03 108.13 123.96 108.13 123.96L111.13 117.62C111.13 117.62 155.49 112.62 158.49 112.95C161.49 113.28 161.16 118.29 161.16 118.29C161.16 118.29 166.57 122.97 167.24 123.97C167.91 124.97 192.51 137.03 200.19 139.7C207.86 142.37 208.53 145.03 208.86 146.37C209.19 147.7 229.2 192.73 236.54 200.4C243.88 208.07 225.2 222.75 218.86 225.41C212.52 228.08 203.85 226.74 200.85 222.07C197.85 217.4 190.51 211.4 190.51 211.4L191.77 261.1M77.58 260.44L77.59 260.46C77.58 260.74 77.35 260.95 77.07 260.94C76.79 260.92 76.58 260.69 76.6 260.41L76.62 260.39L77.58 260.44ZM192.24 261.07L192.27 261.09C192.27 261.37 192.06 261.6 191.78 261.6C191.5 261.61 191.27 261.4 191.27 261.12L191.29 261.1L192.24 261.07Z" fill="#FFFFFF" fill-opacity="1.000000" fill-rule="nonzero"/>
	<path id="Vector" d="M77.1 260.44L79.1 214.75C79.1 214.75 71.43 238.43 67.43 244.43C63.43 250.43 60.43 252.77 54.76 251.77C49.09 250.77 38.41 233.43 38.41 224.75C38.41 216.07 47.43 194.07 49.43 189.06C51.43 184.05 62.1 141.7 63.44 139.37C64.76 137.03 108.13 123.96 108.13 123.96L111.13 117.62C111.13 117.62 155.49 112.62 158.49 112.95C161.49 113.28 161.16 118.29 161.16 118.29C161.16 118.29 166.57 122.97 167.24 123.97C167.91 124.97 192.51 137.03 200.19 139.7C207.86 142.37 208.53 145.03 208.86 146.37C209.19 147.7 229.2 192.73 236.54 200.4C243.88 208.07 225.2 222.75 218.86 225.41C212.52 228.08 203.85 226.74 200.85 222.07C197.85 217.4 190.51 211.4 190.51 211.4L191.77 261.1" stroke="#073F2C" stroke-opacity="1.000000" stroke-width="1.000000" stroke-linejoin="round" stroke-linecap="round"/>
	<path id="Vector" d="M79.1 214.75L78.6 181.41" stroke="#073F2C" stroke-opacity="1.000000" stroke-width="1.000000" stroke-linejoin="round" stroke-linecap="round"/>
	<path id="Vector" d="M76.26 198.2L77.03 203.71" stroke="#073F2C" stroke-opacity="1.000000" stroke-width="1.000000" stroke-linejoin="round" stroke-linecap="round"/>
	<path id="Vector" d="M73.12 175.93L75.51 193" stroke="#073F2C" stroke-opacity="1.000000" stroke-width="1.000000" stroke-linejoin="round" stroke-linecap="round"/>
	<path id="Vector" d="M186.9 190.48C186.64 192.06 186.5 193.6 186.5 195.06" stroke="#073F2C" stroke-opacity="1.000000" stroke-width="1.000000" stroke-linejoin="round" stroke-linecap="round"/>
	<path id="Vector" d="M195.83 166.39C195.83 166.39 190.4 176.28 187.82 186.15" stroke="#073F2C" stroke-opacity="1.000000" stroke-width="1.000000" stroke-linejoin="round" stroke-linecap="round"/>
	<path id="Vector" d="M185.83 177.06C185.83 177.06 183.16 186.07 183.5 193.4" stroke="#073F2C" stroke-opacity="1.000000" stroke-width="1.000000" stroke-linejoin="round" stroke-linecap="round"/>
	<path id="Vector" d="M148.38 135.3C147.55 136.1 146.69 136.88 145.81 137.63" stroke="#073F2C" stroke-opacity="1.000000" stroke-width="1.000000" stroke-linejoin="round" stroke-linecap="round"/>
	<path id="Vector" d="M160.48 119.96C160.48 119.96 156.84 126.24 151.12 132.48" stroke="#073F2C" stroke-opacity="1.000000" stroke-width="1.000000" stroke-linejoin="round" stroke-linecap="round"/>
	<path id="Vector" d="M131.2 252.94L131.13 260.76" stroke="#073F2C" stroke-opacity="1.000000" stroke-width="1.000000" stroke-linejoin="round" stroke-linecap="round"/>
	<path id="Vector" d="M131.98 162.24L131.24 248.14" stroke="#073F2C" stroke-opacity="1.000000" stroke-width="1.000000" stroke-linejoin="round" stroke-linecap="round"/>
	<path id="Vector" d="M130.8 133.63L132.13 139.97L132.02 157.45" stroke="#073F2C" stroke-opacity="1.000000" stroke-width="1.000000" stroke-linejoin="round" stroke-linecap="round"/>
	<path id="Vector" d="M63.43 222.42L56.43 210.41L56.1 224.08C56.1 224.08 61.1 225.41 63.44 222.41L63.43 222.42Z" fill="#FFFFFF" fill-opacity="1.000000" fill-rule="nonzero"/>
	<path id="Vector" d="M56.43 210.41L56.1 224.08C56.1 224.08 61.1 225.41 63.44 222.41L63.43 222.42L56.43 210.41Z" stroke="#073F2C" stroke-opacity="1.000000" stroke-width="1.000000" stroke-linejoin="round"/>
	<path id="Vector" d="M76.76 165.92L71.75 170.81L36.08 132.81L41.09 127.92L76.76 165.92Z" fill="#073F2C" fill-opacity="1.000000" fill-rule="nonzero"/>
	<path id="Vector" d="M71.75 170.81L36.08 132.81L41.09 127.92L76.76 165.92L71.75 170.81Z" stroke="#073F2C" stroke-opacity="1.000000" stroke-width="1.000000" stroke-linejoin="round"/>
	<path id="Vector" d="M40.56 125.45L33.63 132.2L35.62 134.25L42.55 127.49L40.56 125.45Z" fill="#FFFFFF" fill-opacity="1.000000" fill-rule="nonzero"/>
	<path id="Vector" d="M40.56 125.45L42.55 127.49L35.62 134.25L33.63 132.2L40.56 125.45Z" stroke="#073F2C" stroke-opacity="1.000000" stroke-width="1.000000" stroke-linejoin="round"/>
	<path id="Vector" d="M76.14 166.52L72.39 170.17L75.42 173.28L79.17 169.63L76.14 166.52Z" fill="#FFFFFF" fill-opacity="1.000000" fill-rule="nonzero"/>
	<path id="Vector" d="M76.14 166.52L79.17 169.63L75.42 173.28L72.39 170.17L76.14 166.52Z" stroke="#073F2C" stroke-opacity="1.000000" stroke-width="1.000000" stroke-linejoin="round"/>
	<path id="Vector" d="M74.5 165C73.8 165.69 72.67 165.67 71.99 164.97L44.87 135.75C44.18 135.05 44.2 133.92 44.9 133.24C45.6 132.55 46.73 132.57 47.41 133.27L74.53 162.49C75.22 163.19 75.2 164.32 74.5 165Z" fill="#FFFFFF" fill-opacity="1.000000" fill-rule="nonzero"/>
	<path id="Vector" d="M71.99 164.97L44.87 135.75C44.18 135.05 44.2 133.92 44.9 133.24C45.6 132.55 46.73 132.57 47.41 133.27L74.53 162.49C75.22 163.19 75.2 164.32 74.5 165C73.8 165.69 72.67 165.67 71.99 164.97Z" stroke="#073F2C" stroke-opacity="1.000000" stroke-width="1.000000" stroke-linejoin="round"/>
	<path id="Vector" d="M76.6 172.12L77.97 170.79L97.2 190.54C97.54 190.88 97.53 191.44 97.19 191.77L97.07 191.88C96.73 192.22 96.17 192.22 95.83 191.87L76.59 172.11L76.6 172.12Z" fill="#FFFFFF" fill-opacity="1.000000" fill-rule="nonzero"/>
	<path id="Vector" d="M77.97 170.79L97.2 190.54C97.54 190.88 97.53 191.44 97.19 191.77L97.07 191.88C96.73 192.22 96.17 192.22 95.83 191.87L76.59 172.11L76.6 172.12L77.97 170.79Z" stroke="#073F2C" stroke-opacity="1.000000" stroke-width="1.000000" stroke-linejoin="round"/>
	<path id="Vector" d="M43.42 179.06L38.75 164.72L41.42 149.03C41.42 149.03 48.76 140.7 49.76 140.37C50.76 140.03 59.77 140.03 59.77 140.03C59.77 140.03 61.44 139.37 61.44 141.03C61.44 142.71 60.44 143.37 60.44 143.37C60.44 143.37 64.11 143.7 65.11 143.7C66.11 143.7 67.11 144.37 67.11 146.03C67.11 147.69 64.44 148.36 63.44 148.7C62.44 149.03 58.77 150.37 58.77 150.37L53.1 156.71L59.44 156.71C60.77 156.71 63.11 157.38 63.11 157.38C63.78 158.38 64.11 162.05 64.11 162.05C64.11 162.05 65.78 164.38 65.78 168.05C65.78 171.72 66.78 173.72 65.78 174.05C64.78 174.38 62.44 176.05 62.44 174.38C62.44 172.71 62.11 171.04 62.11 171.04L58.44 171.71L57.11 174.38C57.11 174.38 60.11 181.05 60.11 183.72C60.11 186.39 58.78 195.39 58.78 195.39L57.45 220.74C57.45 220.74 53.78 220.74 48.78 218.41C43.78 216.08 38.44 207.4 38.44 207.4L44.44 186.72L43.44 179.05L43.42 179.06Z" fill="#4BA285" fill-opacity="1.000000" fill-rule="nonzero"/>
	<path id="Vector" d="M38.75 164.72L41.42 149.03C41.42 149.03 48.76 140.7 49.76 140.37C50.76 140.03 59.77 140.03 59.77 140.03C59.77 140.03 61.44 139.37 61.44 141.03C61.44 142.71 60.44 143.37 60.44 143.37C60.44 143.37 64.11 143.7 65.11 143.7C66.11 143.7 67.11 144.37 67.11 146.03C67.11 147.69 64.44 148.36 63.44 148.7C62.44 149.03 58.77 150.37 58.77 150.37L53.1 156.71L59.44 156.71C60.77 156.71 63.11 157.38 63.11 157.38C63.78 158.38 64.11 162.05 64.11 162.05C64.11 162.05 65.78 164.38 65.78 168.05C65.78 171.72 66.78 173.72 65.78 174.05C64.78 174.38 62.44 176.05 62.44 174.38C62.44 172.71 62.11 171.04 62.11 171.04L58.44 171.71L57.11 174.38C57.11 174.38 60.11 181.05 60.11 183.72C60.11 186.39 58.78 195.39 58.78 195.39L57.45 220.74C57.45 220.74 53.78 220.74 48.78 218.41C43.78 216.08 38.44 207.4 38.44 207.4L44.44 186.72L43.44 179.05L43.42 179.06L38.75 164.72Z" stroke="#073F2C" stroke-opacity="1.000000" stroke-width="1.000000" stroke-linejoin="round"/>
	<path id="Vector" d="M48.42 203.07C45.61 202.6 43.02 200.45 41.06 198.29L38.41 207.4C38.41 207.4 43.75 216.07 48.75 218.41C53.75 220.74 57.42 220.74 57.42 220.74L58.43 201.54C55.74 202.56 51.86 203.64 48.41 203.06L48.42 203.07Z" fill="#D1D1D1" fill-opacity="1.000000" fill-rule="nonzero"/>
	<path id="Vector" d="M41.06 198.29L38.41 207.4C38.41 207.4 43.75 216.07 48.75 218.41C53.75 220.74 57.42 220.74 57.42 220.74L58.43 201.54C55.74 202.56 51.86 203.64 48.41 203.06L48.42 203.07C45.61 202.6 43.02 200.45 41.06 198.29Z" stroke="#073F2C" stroke-opacity="1.000000" stroke-width="1.000000" stroke-linejoin="round"/>
	<path id="Vector" d="M52.75 168.05C52.75 168.05 53.42 166.38 54.42 166.05C55.42 165.72 64.43 163.38 64.43 163.38" stroke="#073F2C" stroke-opacity="1.000000" stroke-width="1.000000" stroke-linejoin="round" stroke-linecap="round"/>
	<path id="Vector" d="M48.75 162.05L49.75 158.71L53.09 156.71" stroke="#073F2C" stroke-opacity="1.000000" stroke-width="1.000000" stroke-linejoin="round" stroke-linecap="round"/>
	<path id="Vector" d="M44.75 156.05C44.75 156.05 49.09 148.38 50.42 147.05C51.75 145.72 59.43 144.05 60.43 143.38" stroke="#073F2C" stroke-opacity="1.000000" stroke-width="1.000000" stroke-linejoin="round" stroke-linecap="round"/>
	<path id="Vector" d="M57.42 220.75L63.42 222.42C63.42 222.42 65.08 246.1 65.08 249.1C65.08 252.1 58.09 255.77 50.42 256.44C42.75 257.1 30.74 251.1 30.74 245.77C30.74 240.44 38.68 204.1 38.68 204.1C38.68 204.1 44.42 219.09 57.42 220.75Z" fill="#FFFFFF" fill-opacity="1.000000" fill-rule="nonzero"/>
	<path id="Vector" d="M63.42 222.42C63.42 222.42 65.08 246.1 65.08 249.1C65.08 252.1 58.09 255.77 50.42 256.44C42.75 257.1 30.74 251.1 30.74 245.77C30.74 240.44 38.68 204.1 38.68 204.1C38.68 204.1 44.42 219.09 57.42 220.75L63.42 222.42Z" stroke="#073F2C" stroke-opacity="1.000000" stroke-width="1.000000" stroke-linejoin="round"/>
	<path id="Vector" d="M148.47 205.74C148.47 205.74 144.13 205.74 140.13 204.07C136.13 202.4 132.46 201.74 130.46 201.4C128.46 201.07 124.79 202.73 122.12 201.07C119.45 199.4 117.12 198.07 121.45 196.4C125.79 194.73 132.78 196.73 135.46 197.07C138.13 197.4 143.13 196.4 143.13 196.4L148.47 205.74Z" fill="#4BA285" fill-opacity="1.000000" fill-rule="nonzero"/>
	<path id="Vector" d="M140.13 204.07C136.13 202.4 132.46 201.74 130.46 201.4C128.46 201.07 124.79 202.73 122.12 201.07C119.45 199.4 117.12 198.07 121.45 196.4C125.79 194.73 132.78 196.73 135.46 197.07C138.13 197.4 143.13 196.4 143.13 196.4L148.47 205.74C148.47 205.74 144.13 205.74 140.13 204.07Z" stroke="#073F2C" stroke-opacity="1.000000" stroke-width="1.000000" stroke-linejoin="round"/>
	<path id="Vector" d="M104.45 209.07C118.26 209.07 129.46 204.96 129.46 199.9C129.46 194.83 118.26 190.73 104.45 190.73C90.63 190.73 79.44 194.83 79.44 199.9C79.44 204.96 90.63 209.07 104.45 209.07Z" fill="#073F2C" fill-opacity="1.000000" fill-rule="nonzero"/>
	<path id="Vector" d="M104.45 209.07C90.63 209.07 79.44 204.96 79.44 199.9C79.44 194.83 90.63 190.73 104.45 190.73C118.26 190.73 129.46 194.83 129.46 199.9C129.46 204.96 118.26 209.07 104.45 209.07Z" stroke="#073F2C" stroke-opacity="1.000000" stroke-width="1.000000" stroke-linejoin="round"/>
	<path id="Vector" d="M104.45 207.74C117.34 207.74 127.8 204.23 127.8 199.9C127.8 195.57 117.34 192.06 104.45 192.06C91.55 192.06 81.1 195.57 81.1 199.9C81.1 204.23 91.55 207.74 104.45 207.74Z" fill="#FFFFFF" fill-opacity="1.000000" fill-rule="nonzero"/>
	<path id="Vector" d="M104.45 207.74C91.55 207.74 81.1 204.23 81.1 199.9C81.1 195.57 91.55 192.06 104.45 192.06C117.34 192.06 127.8 195.57 127.8 199.9C127.8 204.23 117.34 207.74 104.45 207.74Z" stroke="#073F2C" stroke-opacity="1.000000" stroke-width="1.000000" stroke-linejoin="round"/>
	<path id="Vector" d="M178.82 229.75C178.82 229.75 177.96 214.66 177.96 212.31C177.96 209.96 188.91 213.87 188.91 213.87C188.91 213.87 183.19 228.41 178.81 229.75L178.82 229.75Z" fill="#FFFFFF" fill-opacity="1.000000" fill-rule="nonzero"/>
	<path id="Vector" d="M177.96 212.31C177.96 209.96 188.91 213.87 188.91 213.87C188.91 213.87 183.19 228.41 178.81 229.75L178.82 229.75C178.82 229.75 177.96 214.66 177.96 212.31Z" stroke="#073F2C" stroke-opacity="1.000000" stroke-width="1.000000" stroke-linejoin="round"/>
	<path id="Vector" d="M184.49 199.4C184.49 199.4 172.48 196.06 169.15 194.73C165.81 193.4 149.47 186.06 146.47 184.06C143.47 182.06 134.8 181.39 134.8 181.39C134.8 181.39 127.13 178.05 126.13 178.05C125.13 178.05 110.79 183.72 107.79 185.05C104.79 186.38 105.12 189.39 106.46 190.39C107.79 191.39 120.8 185.39 120.8 185.39L117.13 195.4C117.13 195.4 112.46 199.07 114.13 201.4C115.8 203.73 120.8 199.73 122.47 198.73C124.14 197.73 133.81 193.06 133.81 193.06C133.81 193.06 125.14 202.73 123.47 205.4C121.8 208.07 125.8 208.07 127.14 207.4C128.47 206.73 137.81 199.73 137.81 199.73C137.81 199.73 151.48 209.07 155.14 209.07C158.82 209.07 164.82 206.74 164.82 206.74L185.5 218.41C185.5 218.41 188.84 212.74 189.17 208.74C189.5 204.74 189.5 199.73 189.5 199.73L184.5 199.4L184.49 199.4Z" fill="#4BA285" fill-opacity="1.000000" fill-rule="nonzero"/>
	<path id="Vector" d="M169.15 194.73C165.81 193.4 149.47 186.06 146.47 184.06C143.47 182.06 134.8 181.39 134.8 181.39C134.8 181.39 127.13 178.05 126.13 178.05C125.13 178.05 110.79 183.72 107.79 185.05C104.79 186.38 105.12 189.39 106.46 190.39C107.79 191.39 120.8 185.39 120.8 185.39L117.13 195.4C117.13 195.4 112.46 199.07 114.13 201.4C115.8 203.73 120.8 199.73 122.47 198.73C124.14 197.73 133.81 193.06 133.81 193.06C133.81 193.06 125.14 202.73 123.47 205.4C121.8 208.07 125.8 208.07 127.14 207.4C128.47 206.73 137.81 199.73 137.81 199.73C137.81 199.73 151.48 209.07 155.14 209.07C158.82 209.07 164.82 206.74 164.82 206.74L185.5 218.41C185.5 218.41 188.84 212.74 189.17 208.74C189.5 204.74 189.5 199.73 189.5 199.73L184.5 199.4L184.49 199.4C184.49 199.4 172.48 196.06 169.15 194.73Z" stroke="#073F2C" stroke-opacity="1.000000" stroke-width="1.000000" stroke-linejoin="round"/>
	<path id="Vector" d="M117.12 195.4L124.79 188.73L131.13 185.73" stroke="#073F2C" stroke-opacity="1.000000" stroke-width="1.000000" stroke-linejoin="round" stroke-linecap="round"/>
	<path id="Vector" d="M120.79 185.4L122.46 181.73" stroke="#073F2C" stroke-opacity="1.000000" stroke-width="1.000000" stroke-linejoin="round" stroke-linecap="round"/>
	<path id="Vector" d="M127.8 187.73L129.13 183.73" stroke="#073F2C" stroke-opacity="1.000000" stroke-width="1.000000" stroke-linejoin="round" stroke-linecap="round"/>
	<path id="Vector" d="M137.8 199.74L146.81 197.4" stroke="#073F2C" stroke-opacity="1.000000" stroke-width="1.000000" stroke-linejoin="round" stroke-linecap="round"/>
	<path id="Vector" d="M133.8 193.07L138.47 190.4" stroke="#073F2C" stroke-opacity="1.000000" stroke-width="1.000000" stroke-linejoin="round" stroke-linecap="round"/>
	<path id="Vector" d="M180.96 198.41C181.85 201.1 182.53 204.9 181.49 209.08C180.9 211.46 180.06 213.36 179.19 214.86L185.49 218.42C185.49 218.42 188.83 212.75 189.16 208.75C189.49 204.75 189.49 199.74 189.49 199.74L184.49 199.41C184.49 199.41 183.02 199 180.96 198.41Z" fill="#D1D1D1" fill-opacity="1.000000" fill-rule="nonzero"/>
	<path id="Vector" d="M181.49 209.08C180.9 211.46 180.06 213.36 179.19 214.86L185.49 218.42C185.49 218.42 188.83 212.75 189.16 208.75C189.49 204.75 189.49 199.74 189.49 199.74L184.49 199.41C184.49 199.41 183.02 199 180.96 198.41C181.85 201.1 182.53 204.9 181.49 209.08Z" stroke="#073F2C" stroke-opacity="1.000000" stroke-width="1.000000" stroke-linejoin="round"/>
	<path id="Vector" d="M222.52 187.4C222.52 187.4 213.52 189.73 209.85 191.74C206.18 193.74 191.51 195.74 190.17 196.41C188.84 197.08 180.97 198.41 180.97 198.41C180.97 198.41 184.83 206.41 182.83 212.75C180.83 219.09 178.83 229.76 178.83 229.76C178.83 229.76 195.84 234.43 210.51 230.76C225.18 227.09 234.86 216.42 237.53 215.08C240.2 213.75 241.53 208.08 241.53 205.41C241.53 202.74 232.86 193.07 230.86 192.4M222.38 186.94L222.39 186.91C222.66 186.84 222.93 187 223 187.27C223.07 187.54 222.91 187.81 222.64 187.88L222.62 187.87L222.38 186.94ZM230.72 192.86L230.7 192.87C230.43 192.78 230.29 192.5 230.38 192.24C230.47 191.97 230.75 191.83 231.01 191.92L231.03 191.95L230.72 192.86Z" fill="#FFFFFF" fill-opacity="1.000000" fill-rule="nonzero"/>
	<path id="Vector" d="M222.52 187.4C222.52 187.4 213.52 189.73 209.85 191.74C206.18 193.74 191.51 195.74 190.17 196.41C188.84 197.08 180.97 198.41 180.97 198.41C180.97 198.41 184.83 206.41 182.83 212.75C180.83 219.09 178.83 229.76 178.83 229.76C178.83 229.76 195.84 234.43 210.51 230.76C225.18 227.09 234.86 216.42 237.53 215.08C240.2 213.75 241.53 208.08 241.53 205.41C241.53 202.74 232.86 193.07 230.86 192.4" stroke="#073F2C" stroke-opacity="1.000000" stroke-width="1.000000" stroke-linejoin="round" stroke-linecap="round"/>
	<path id="Vector" d="M126.8 46.92C126.8 46.92 117.13 49.92 111.46 55.26C105.79 60.6 105.79 81.26 105.79 83.94C105.79 86.61 104.79 102.62 105.46 107.29C106.13 111.96 119.47 131.64 128.47 131.97C137.47 132.3 151.48 121.63 153.82 118.3C156.14 114.96 159.82 108.96 161.16 105.63C162.49 102.29 164.16 90.29 164.5 86.62C164.83 82.95 164.5 77.28 164.5 77.28C164.5 77.28 166.5 67.61 162.83 61.27C159.16 54.93 148.82 47.26 140.48 45.93C132.14 44.6 126.81 46.93 126.81 46.93L126.8 46.92Z" fill="#FFFFFF" fill-opacity="1.000000" fill-rule="nonzero"/>
	<path id="Vector" d="M111.46 55.26C105.79 60.6 105.79 81.26 105.79 83.94C105.79 86.61 104.79 102.62 105.46 107.29C106.13 111.96 119.47 131.64 128.47 131.97C137.47 132.3 151.48 121.63 153.82 118.3C156.14 114.96 159.82 108.96 161.16 105.63C162.49 102.29 164.16 90.29 164.5 86.62C164.83 82.95 164.5 77.28 164.5 77.28C164.5 77.28 166.5 67.61 162.83 61.27C159.16 54.93 148.82 47.26 140.48 45.93C132.14 44.6 126.81 46.93 126.81 46.93L126.8 46.92C126.8 46.92 117.13 49.92 111.46 55.26Z" stroke="#073F2C" stroke-opacity="1.000000" stroke-width="1.000000" stroke-linejoin="round"/>
	<path id="Vector" d="M105.78 78.93C105.78 78.93 112.78 72.93 128.46 72.58C144.14 72.26 154.47 81.26 154.47 81.26C154.47 81.26 156.8 79.58 156.14 88.6C155.47 97.61 154.47 99.61 147.14 102.27C139.8 104.94 123.46 106.94 116.46 104.94C109.46 102.94 105.76 95.28 105.44 92.94C105.12 90.6 105.79 78.93 105.79 78.93L105.78 78.93Z" fill="#D1D1D1" fill-opacity="1.000000" fill-rule="nonzero"/>
	<path id="Vector" d="M128.46 72.58C144.14 72.26 154.47 81.26 154.47 81.26C154.47 81.26 156.8 79.58 156.14 88.6C155.47 97.61 154.47 99.61 147.14 102.27C139.8 104.94 123.46 106.94 116.46 104.94C109.46 102.94 105.76 95.28 105.44 92.94C105.12 90.6 105.79 78.93 105.79 78.93L105.78 78.93C105.78 78.93 112.78 72.93 128.46 72.58Z" stroke="#073F2C" stroke-opacity="1.000000" stroke-width="1.000000" stroke-linejoin="round"/>
	<path id="Vector" d="M105.78 75.93C105.78 75.93 117.45 81.26 133.8 80.6C150.14 79.93 163.17 75.17 164.84 74.83C166.5 74.49 165.19 77.44 165.19 77.44L155.81 82.26C155.81 82.26 155.81 91.27 153.81 94.27C151.81 97.27 147.47 99.27 142.8 99.27C138.13 99.27 133.78 96.61 131.13 94.27C130 93.28 127.46 93.6 126.46 94.94C125.46 96.27 124.13 98.28 119.79 97.94C115.45 97.61 110.45 96.61 108.45 93.94C106.45 91.27 105.78 83.93 105.78 83.93C105.78 83.93 105.45 77.26 105.78 75.93Z" fill="#FFFFFF" fill-opacity="1.000000" fill-rule="nonzero"/>
	<path id="Vector" d="M133.8 80.6C150.14 79.93 163.17 75.17 164.84 74.83C166.5 74.49 165.19 77.44 165.19 77.44L155.81 82.26C155.81 82.26 155.81 91.27 153.81 94.27C151.81 97.27 147.47 99.27 142.8 99.27C138.13 99.27 133.78 96.61 131.13 94.27C130 93.28 127.46 93.6 126.46 94.94C125.46 96.27 124.13 98.28 119.79 97.94C115.45 97.61 110.45 96.61 108.45 93.94C106.45 91.27 105.78 83.93 105.78 83.93C105.78 83.93 105.45 77.26 105.78 75.93C105.78 75.93 117.45 81.26 133.8 80.6Z" stroke="#073F2C" stroke-opacity="1.000000" stroke-width="1.000000" stroke-linejoin="round"/>
	<path id="Vector" d="M118.72 126.76C118.72 126.76 119.9 130.69 123.83 133.83C127.76 136.97 130.12 138.14 134.44 136.97C138.75 135.78 152.52 128.72 147.8 129.5C143.08 130.28 139.55 131.46 139.55 131.46C139.55 131.46 148.2 126.74 153.7 121.64C159.2 116.53 156.45 110.24 156.45 110.24C156.45 110.24 118.33 122.03 115.58 120.46C112.83 118.89 118.72 126.75 118.72 126.75L118.72 126.76Z" fill="#073F2C" fill-opacity="1.000000" fill-rule="nonzero"/>
	<path id="Vector" d="M164.48 86.61C164.58 85.47 164.62 84.13 164.63 82.83C163.75 83.9 159.87 88.59 157.81 90.94C155.48 93.61 150.14 97.94 129.13 96.94C108.12 95.94 105.45 92.94 105.45 92.94L105.44 92.94C105.23 98.38 105.08 104.64 105.45 107.28C106.12 111.95 119.46 131.63 128.46 131.96C137.46 132.28 151.47 121.62 153.81 118.29C156.14 114.95 159.81 108.95 161.14 105.62L158.48 109.62L159.48 93.28L164.48 86.61Z" fill="#4BA285" fill-opacity="1.000000" fill-rule="nonzero"/>
	<path id="Vector" d="M164.63 82.83C163.75 83.9 159.87 88.59 157.81 90.94C155.48 93.61 150.14 97.94 129.13 96.94C108.12 95.94 105.45 92.94 105.45 92.94L105.44 92.94C105.23 98.38 105.08 104.64 105.45 107.28C106.12 111.95 119.46 131.63 128.46 131.96C137.46 132.28 151.47 121.62 153.81 118.29C156.14 114.95 159.81 108.95 161.14 105.62L158.48 109.62L159.48 93.28L164.48 86.61C164.58 85.47 164.62 84.13 164.63 82.83Z" stroke="#073F2C" stroke-opacity="1.000000" stroke-width="1.000000" stroke-linejoin="round"/>
	<path id="Vector" d="M125.8 87.27C125.8 87.27 121.8 82.27 113.46 83.6" stroke="#073F2C" stroke-opacity="1.000000" stroke-width="1.000000" stroke-linejoin="round" stroke-linecap="round"/>
	<path id="Vector" d="M136.13 87.27C136.13 87.27 141.47 84.27 150.47 85.6" stroke="#073F2C" stroke-opacity="1.000000" stroke-width="1.000000" stroke-linejoin="round" stroke-linecap="round"/>
	<path id="Vector" d="M114.46 89.94C114.46 89.94 117.46 94.94 123.46 91.94" stroke="#073F2C" stroke-opacity="1.000000" stroke-width="1.000000" stroke-linejoin="round" stroke-linecap="round"/>
	<path id="Vector" d="M137.47 92.28C137.47 92.28 140.81 97.62 148.81 92.28" stroke="#073F2C" stroke-opacity="1.000000" stroke-width="1.000000" stroke-linejoin="round" stroke-linecap="round"/>
	<path id="Vector" d="M40.73 261.01L231.62 261.01" stroke="#073F2C" stroke-opacity="1.000000" stroke-width="1.000000" stroke-linejoin="round" stroke-linecap="round"/>
	<path id="Vector" d="M356.59 337.51C356.59 387.29 316.23 427.65 266.45 427.65C216.66 427.65 176.31 387.29 176.31 337.51C176.31 287.72 216.66 247.37 266.45 247.37C316.23 247.37 356.59 287.72 356.59 337.51Z" fill="#4BA285" fill-opacity="1.000000" fill-rule="evenodd"/>
	<path id="Vector" d="M218.39 249.25C218.39 249.25 206.35 241.23 192.86 241.59C179.37 241.95 174.26 255.81 173.53 259.82C172.8 263.84 173.89 266.03 165.87 266.03C157.85 266.03 141.07 264.57 134.5 273.32C127.93 282.07 127.21 291.92 133.03 298.12C138.88 304.32 141.06 306.87 141.06 306.87C141.06 306.87 134.86 312.71 137.78 320.73C140.7 328.75 151.27 332.4 158.2 332.4C165.13 332.4 175.71 322.54 178.62 316.72C181.54 310.88 189.93 312.71 196.49 303.59C203.06 294.47 199.77 283.17 198.68 276.97C197.59 270.76 199.04 258 207.8 254.72C216.55 251.44 218.01 251.44 218.01 251.44L218.37 249.25L218.39 249.25Z" fill="#073F2C" fill-opacity="1.000000" fill-rule="nonzero"/>
	<path id="Vector" d="M192.86 241.59C179.37 241.95 174.26 255.81 173.53 259.82C172.8 263.84 173.89 266.03 165.87 266.03C157.85 266.03 141.07 264.57 134.5 273.32C127.93 282.07 127.21 291.92 133.03 298.12C138.88 304.32 141.06 306.87 141.06 306.87C141.06 306.87 134.86 312.71 137.78 320.73C140.7 328.75 151.27 332.4 158.2 332.4C165.13 332.4 175.71 322.54 178.62 316.72C181.54 310.88 189.93 312.71 196.49 303.59C203.06 294.47 199.77 283.17 198.68 276.97C197.59 270.76 199.04 258 207.8 254.72C216.55 251.44 218.01 251.44 218.01 251.44L218.37 249.25L218.39 249.25C218.39 249.25 206.35 241.23 192.86 241.59Z" stroke="#073F2C" stroke-opacity="1.000000" stroke-width="1.000000" stroke-linejoin="round"/>
	<path id="Vector" d="M116.64 426.87L142.89 379.82C142.89 379.82 143.63 369.97 148 356.11C152.39 342.25 157.49 320 163.69 312.34C169.89 304.68 190.68 297.75 190.68 297.75C190.68 297.75 210.74 306.5 216.21 310.51C221.68 314.53 230.8 321.46 233.72 327.66C236.64 333.86 239.19 348.81 243.93 354.28C248.67 359.75 259.25 370.69 258.88 380.9C258.51 391.11 256.69 395.12 256.69 397.68C256.69 400.24 251.59 397.14 242.11 398.24C232.63 399.33 225.88 402.45 225.15 403.54C224.42 404.63 201 442 201 442M117.06 427.08L117.07 427.11C116.94 427.35 116.64 427.44 116.39 427.3C116.15 427.17 116.06 426.87 116.2 426.62L116.23 426.61L117.06 427.08ZM201.41 442.23L201.42 442.26C201.27 442.5 200.97 442.57 200.73 442.42C200.49 442.27 200.42 441.97 200.57 441.73L200.6 441.72L201.41 442.23Z" fill="#FFFFFF" fill-opacity="1.000000" fill-rule="nonzero"/>
	<path id="Vector" d="M116.64 426.87L142.89 379.82C142.89 379.82 143.63 369.97 148 356.11C152.39 342.25 157.49 320 163.69 312.34C169.89 304.68 190.68 297.75 190.68 297.75C190.68 297.75 210.74 306.5 216.21 310.51C221.68 314.53 230.8 321.46 233.72 327.66C236.64 333.86 239.19 348.81 243.93 354.28C248.67 359.75 259.25 370.69 258.88 380.9C258.51 391.11 256.69 395.12 256.69 397.68C256.69 400.24 251.59 397.14 242.11 398.24C232.63 399.33 225.88 402.45 225.15 403.54C224.42 404.63 201 442 201 442" stroke="#073F2C" stroke-opacity="1.000000" stroke-width="1.000000" stroke-linejoin="round" stroke-linecap="round"/>
	<path id="Vector" d="M234.44 344.08C234.44 344.08 238.09 364.5 238.82 369.61C239.55 374.72 229.34 395.51 226.78 397.69" stroke="#073F2C" stroke-opacity="1.000000" stroke-width="1.000000" stroke-linejoin="round" stroke-linecap="round"/>
	<path id="Vector" d="M226.05 344.08C226.05 344.08 225.32 361.22 226.41 369.61C227.5 378 229.69 388.58 227.87 391.86" stroke="#073F2C" stroke-opacity="1.000000" stroke-width="1.000000" stroke-linejoin="round" stroke-linecap="round"/>
	<path id="Vector" d="M237.72 375.08C237.72 375.08 243.92 369.97 251.94 372.16" stroke="#073F2C" stroke-opacity="1.000000" stroke-width="1.000000" stroke-linejoin="round" stroke-linecap="round"/>
	<path id="Vector" d="M241.01 370.71C241.01 370.71 245.75 367.79 250.13 367.79" stroke="#073F2C" stroke-opacity="1.000000" stroke-width="1.000000" stroke-linejoin="round" stroke-linecap="round"/>
	<path id="Vector" d="M226.78 315.63L230.06 322.2L234.07 340.8L228.23 330.59L225.31 342.99L221.66 320.38C221.66 320.38 223.12 312.72 226.77 315.64L226.78 315.63Z" fill="#FFFFFF" fill-opacity="1.000000" fill-rule="nonzero"/>
	<path id="Vector" d="M230.06 322.2L234.07 340.8L228.23 330.59L225.31 342.99L221.66 320.38C221.66 320.38 223.12 312.72 226.77 315.64L226.78 315.63L230.06 322.2Z" stroke="#073F2C" stroke-opacity="1.000000" stroke-width="1.000000" stroke-linejoin="round"/>
	<path id="Vector" d="M212.19 282.07C212.19 282.07 207.81 286.09 204.53 287.54C201.25 289.01 197.24 290.47 197.24 290.47L217.3 330.59L225.32 342.99C225.32 342.99 224.96 332.41 224.96 328.77C224.96 325.13 224.23 321.1 224.23 321.1L233.71 309.44C233.71 309.44 236.63 282.45 234.07 278.07C231.51 273.69 216.93 277.34 212.19 282.07Z" fill="#FFFFFF" fill-opacity="1.000000" fill-rule="nonzero"/>
	<path id="Vector" d="M204.53 287.54C201.25 289.01 197.24 290.47 197.24 290.47L217.3 330.59L225.32 342.99C225.32 342.99 224.96 332.41 224.96 328.77C224.96 325.13 224.23 321.1 224.23 321.1L233.71 309.44C233.71 309.44 236.63 282.45 234.07 278.07C231.51 273.69 216.93 277.34 212.19 282.07C212.19 282.07 207.81 286.09 204.53 287.54Z" stroke="#073F2C" stroke-opacity="1.000000" stroke-width="1.000000" stroke-linejoin="round"/>
	<path id="Vector" d="M234.6 299.26L227.64 293C227.64 293 226.06 294.5 224.95 304.22C224.39 309.15 225.96 313.64 227.66 316.88L233.71 309.43C233.71 309.43 234.2 304.91 234.6 299.26Z" fill="#073F2C" fill-opacity="1.000000" fill-rule="nonzero"/>
	<path id="Vector" d="M227.64 293C227.64 293 226.06 294.5 224.95 304.22C224.39 309.15 225.96 313.64 227.66 316.88L233.71 309.43C233.71 309.43 234.2 304.91 234.6 299.26L227.64 293Z" stroke="#073F2C" stroke-opacity="1.000000" stroke-width="1.000000" stroke-linejoin="round"/>
	<path id="Vector" d="M278.93 270.46C278.93 270.46 276.34 283.01 274.13 287.07C271.91 291.14 268.81 293.37 268.59 295.21C267.84 301.44 267.85 304.07 266 306.66C264.15 309.25 253.81 315.53 247.53 317C241.25 318.48 237.56 319.59 235.71 317.74C233.86 315.89 227.21 306.29 227.21 302.22C227.21 298.15 226.1 297.04 227.21 294.46C228.32 291.87 228.32 285.22 228.32 285.22C228.32 285.22 228.32 281.9 232.75 276.35C237.18 270.81 245.68 269.32 251.96 269.32C258.24 269.32 258.98 264.9 265.63 263.04C272.28 261.2 277.07 266.74 278.93 270.44L278.93 270.46Z" fill="#FFFFFF" fill-opacity="1.000000" fill-rule="nonzero"/>
	<path id="Vector" d="M274.13 287.07C271.91 291.14 268.81 293.37 268.59 295.21C267.84 301.44 267.85 304.07 266 306.66C264.15 309.25 253.81 315.53 247.53 317C241.25 318.48 237.56 319.59 235.71 317.74C233.86 315.89 227.21 306.29 227.21 302.22C227.21 298.15 226.1 297.04 227.21 294.46C228.32 291.87 228.32 285.22 228.32 285.22C228.32 285.22 228.32 281.9 232.75 276.35C237.18 270.81 245.68 269.32 251.96 269.32C258.24 269.32 258.98 264.9 265.63 263.04C272.28 261.2 277.07 266.74 278.93 270.44L278.93 270.46C278.93 270.46 276.34 283.01 274.13 287.07Z" stroke="#073F2C" stroke-opacity="1.000000" stroke-width="1.000000" stroke-linejoin="round"/>
	<path id="Vector" d="M264.4 292.63C263.62 293.93 262.5 294.68 261.89 294.32C261.28 293.95 261.41 292.6 262.19 291.31C262.97 290.01 264.09 289.26 264.7 289.62C265.31 289.99 265.18 291.32 264.4 292.63Z" fill="#073F2C" fill-opacity="1.000000" fill-rule="nonzero"/>
	<path id="Vector" d="M262.65 285.53C262.65 285.53 267.32 283.6 269.74 287.95" stroke="#073F2C" stroke-opacity="1.000000" stroke-width="1.000000" stroke-linejoin="round" stroke-linecap="round"/>
	<path id="Vector" d="M266 306.67C266.82 305.51 267.42 303.5 267.84 301.45C264.97 299.88 258.65 296.18 255.29 292.26C250.86 287.09 241.99 274.53 241.99 274.53L240.51 276.38L247.9 288.57C247.9 288.57 239.4 295.59 233.49 295.59C228.89 295.59 227.88 293.81 227.65 293.01C227.53 293.57 227.38 294.07 227.21 294.48C226.1 297.07 227.21 298.17 227.21 302.24C227.21 306.31 233.86 315.91 235.71 317.76C237.56 319.6 241.25 318.5 247.53 317.01C253.81 315.54 264.15 309.26 266 306.68L266 306.67Z" fill="#4BA285" fill-opacity="1.000000" fill-rule="nonzero"/>
	<path id="Vector" d="M267.84 301.45C264.97 299.88 258.65 296.18 255.29 292.26C250.86 287.09 241.99 274.53 241.99 274.53L240.51 276.38L247.9 288.57C247.9 288.57 239.4 295.59 233.49 295.59C228.89 295.59 227.88 293.81 227.65 293.01C227.53 293.57 227.38 294.07 227.21 294.48C226.1 297.07 227.21 298.17 227.21 302.24C227.21 306.31 233.86 315.91 235.71 317.76C237.56 319.6 241.25 318.5 247.53 317.01C253.81 315.54 264.15 309.26 266 306.68L266 306.67C266.82 305.51 267.42 303.5 267.84 301.45Z" stroke="#073F2C" stroke-opacity="1.000000" stroke-width="1.000000" stroke-linejoin="round"/>
	<path id="Vector" d="M239.03 279.32C239.03 279.32 243.46 276.37 249.74 276.74C256.01 277.1 263.41 279.7 265.26 276.37C267.1 273.04 267.48 266.76 273.01 268.24C278.56 269.72 279.29 273.04 279.29 273.04C279.29 273.04 290.75 272.67 291.85 266.39C292.97 260.1 286.69 250.14 282.62 249.4C278.56 248.66 274.85 247.92 274.85 247.92C274.85 247.92 260.82 233.51 244.2 233.88C227.58 234.25 220.19 240.9 216.12 254.94C212.06 268.98 213.9 274.15 210.58 278.95C207.26 283.75 205.41 288.56 213.54 287.82C221.67 287.07 227.21 281.91 231.27 280.06C235.33 278.21 239.03 279.32 239.03 279.32L239.03 279.32Z" fill="#073F2C" fill-opacity="1.000000" fill-rule="nonzero"/>
	<path id="Vector" d="M249.74 276.74C256.01 277.1 263.41 279.7 265.26 276.37C267.1 273.04 267.48 266.76 273.01 268.24C278.56 269.72 279.29 273.04 279.29 273.04C279.29 273.04 290.75 272.67 291.85 266.39C292.97 260.1 286.69 250.14 282.62 249.4C278.56 248.66 274.85 247.92 274.85 247.92C274.85 247.92 260.82 233.51 244.2 233.88C227.58 234.25 220.19 240.9 216.12 254.94C212.06 268.98 213.9 274.15 210.58 278.95C207.26 283.75 205.41 288.56 213.54 287.82C221.67 287.07 227.21 281.91 231.27 280.06C235.33 278.21 239.03 279.32 239.03 279.32L239.03 279.32C239.03 279.32 243.46 276.37 249.74 276.74Z" stroke="#073F2C" stroke-opacity="1.000000" stroke-width="1.000000" stroke-linejoin="round"/>
	<path id="Vector" d="M240.14 281.92C240.14 281.92 244.57 276.38 240.51 270.47C236.45 264.56 224.62 276.01 226.47 282.29C228.32 288.57 233.12 287.82 233.12 287.82M240.52 282.2L240.53 282.23C240.35 282.45 240.04 282.48 239.82 282.31C239.6 282.13 239.57 281.82 239.75 281.6L239.77 281.6L240.52 282.2ZM233.02 287.35L233.04 287.33C233.32 287.29 233.57 287.47 233.61 287.75C233.65 288.03 233.47 288.28 233.19 288.32L233.17 288.3L233.02 287.35Z" fill="#FFFFFF" fill-opacity="1.000000" fill-rule="nonzero"/>
	<path id="Vector" d="M240.14 281.92C240.14 281.92 244.57 276.38 240.51 270.47C236.45 264.56 224.62 276.01 226.47 282.29C228.32 288.57 233.12 287.82 233.12 287.82" stroke="#073F2C" stroke-opacity="1.000000" stroke-width="1.000000" stroke-linejoin="round" stroke-linecap="round"/>
	<path id="Vector" d="M200.16 285.72L222.41 330.95L214.75 343.35L187.76 296.67L200.16 285.72Z" fill="#FFFFFF" fill-opacity="1.000000" fill-rule="nonzero"/>
	<path id="Vector" d="M222.41 330.95L214.75 343.35L187.76 296.67L200.16 285.72L222.41 330.95Z" stroke="#073F2C" stroke-opacity="1.000000" stroke-width="1.000000" stroke-linejoin="round"/>
	<path id="Vector" d="M227.15 399.47C227.15 399.47 226.64 390.74 237.77 389.87C248.9 389 257.49 393.8 258 401.22C258.51 408.64 235.75 403.84 233.22 403.84C230.69 403.84 227.15 399.48 227.15 399.48L227.15 399.47Z" fill="#FFFFFF" fill-opacity="1.000000" fill-rule="nonzero"/>
	<path id="Vector" d="M237.77 389.87C248.9 389 257.49 393.8 258 401.22C258.51 408.64 235.75 403.84 233.22 403.84C230.69 403.84 227.15 399.48 227.15 399.48L227.15 399.47C227.15 399.47 226.64 390.74 237.77 389.87Z" stroke="#073F2C" stroke-opacity="1.000000" stroke-width="1.000000" stroke-linejoin="round"/>
	<path id="Vector" d="M351.52 422.92L203.44 422.92L203.44 431.25L351.15 431.25M351.5 422.44L351.52 422.42C351.8 422.42 352.02 422.64 352.02 422.92C352.02 423.2 351.8 423.42 351.52 423.42L351.5 423.4L351.5 422.44ZM351.13 430.77L351.15 430.75C351.43 430.75 351.65 430.97 351.65 431.25C351.65 431.53 351.43 431.75 351.15 431.75L351.13 431.73L351.13 430.77Z" fill="#FFFFFF" fill-opacity="1.000000" fill-rule="nonzero"/>
	<path id="Vector" d="M351.52 422.92L203.44 422.92L203.44 431.25L351.15 431.25" stroke="#073F2C" stroke-opacity="1.000000" stroke-width="1.000000" stroke-linejoin="round" stroke-linecap="round"/>
	<path id="Vector" d="M299 334.23L260.34 350.28L260.34 410.1L274.93 410.1L274.93 353.93L301.92 338.97L299 334.23Z" fill="#FFFFFF" fill-opacity="1.000000" fill-rule="nonzero"/>
	<path id="Vector" d="M260.34 350.28L260.34 410.1L274.93 410.1L274.93 353.93L301.92 338.97L299 334.23L260.34 350.28Z" stroke="#073F2C" stroke-opacity="1.000000" stroke-width="1.000000" stroke-linejoin="round"/>
	<path id="Vector" d="M319.15 391.18C319.15 390.57 318.79 390.05 318.26 389.81C318.79 389.57 319.15 389.05 319.15 388.44C319.15 387.61 318.48 386.94 317.65 386.94L304.79 386.94C303.96 386.94 303.29 387.61 303.29 388.44C303.29 389.05 303.65 389.57 304.17 389.81C303.65 390.05 303.29 390.57 303.29 391.18C303.29 391.79 303.65 392.31 304.17 392.55C303.65 392.79 303.29 393.31 303.29 393.92C303.29 394.53 303.65 395.05 304.17 395.29C303.65 395.53 303.29 396.05 303.29 396.66C303.29 397.27 303.65 397.79 304.17 398.03C303.65 398.27 303.29 398.79 303.29 399.4C303.29 400.23 303.96 400.9 304.79 400.9L317.65 400.9C318.48 400.9 319.15 400.23 319.15 399.4C319.15 398.79 318.79 398.27 318.26 398.03C318.79 397.79 319.15 397.27 319.15 396.66C319.15 396.05 318.79 395.53 318.26 395.29C318.79 395.05 319.15 394.53 319.15 393.92C319.15 393.31 318.79 392.79 318.26 392.55C318.79 392.31 319.15 391.79 319.15 391.18Z" fill="#073F2C" fill-opacity="1.000000" fill-rule="nonzero"/>
	<path id="Vector" d="M318.26 389.81C318.79 389.57 319.15 389.05 319.15 388.44C319.15 387.61 318.48 386.94 317.65 386.94L304.79 386.94C303.96 386.94 303.29 387.61 303.29 388.44C303.29 389.05 303.65 389.57 304.17 389.81C303.65 390.05 303.29 390.57 303.29 391.18C303.29 391.79 303.65 392.31 304.17 392.55C303.65 392.79 303.29 393.31 303.29 393.92C303.29 394.53 303.65 395.05 304.17 395.29C303.65 395.53 303.29 396.05 303.29 396.66C303.29 397.27 303.65 397.79 304.17 398.03C303.65 398.27 303.29 398.79 303.29 399.4C303.29 400.23 303.96 400.9 304.79 400.9L317.65 400.9C318.48 400.9 319.15 400.23 319.15 399.4C319.15 398.79 318.79 398.27 318.26 398.03C318.79 397.79 319.15 397.27 319.15 396.66C319.15 396.05 318.79 395.53 318.26 395.29C318.79 395.05 319.15 394.53 319.15 393.92C319.15 393.31 318.79 392.79 318.26 392.55C318.79 392.31 319.15 391.79 319.15 391.18C319.15 390.57 318.79 390.05 318.26 389.81Z" stroke="#073F2C" stroke-opacity="1.000000" stroke-width="1.000000" stroke-linejoin="round"/>
	<path id="Vector" d="M330.91 400.61L260.06 400.61L260.06 415.11L330.91 415.11L330.91 400.61Z" fill="#FFFFFF" fill-opacity="1.000000" fill-rule="nonzero"/>
	<path id="Vector" d="M330.91 400.61L330.91 415.11L260.06 415.11L260.06 400.61L330.91 400.61Z" stroke="#073F2C" stroke-opacity="1.000000" stroke-width="1.000000" stroke-linejoin="round"/>
	<path id="Vector" d="M330.91 407.45L260.06 407.45L260.06 415.11L330.91 415.11L330.91 407.45Z" fill="#073F2C" fill-opacity="1.000000" fill-rule="nonzero"/>
	<path id="Vector" d="M330.91 407.45L330.91 415.11L260.06 415.11L260.06 407.45L330.91 407.45Z" stroke="#073F2C" stroke-opacity="1.000000" stroke-width="1.000000" stroke-linejoin="round"/>
	<path id="Vector" d="M273.19 414.84L264.71 414.84L264.71 422.77L273.19 422.77L273.19 414.84Z" fill="#073F2C" fill-opacity="1.000000" fill-rule="nonzero"/>
	<path id="Vector" d="M273.19 414.84L273.19 422.77L264.71 422.77L264.71 414.84L273.19 414.84Z" stroke="#073F2C" stroke-opacity="1.000000" stroke-width="1.000000" stroke-linejoin="round"/>
	<path id="Vector" d="M298.91 414.84L290.43 414.84L290.43 422.77L298.91 422.77L298.91 414.84Z" fill="#073F2C" fill-opacity="1.000000" fill-rule="nonzero"/>
	<path id="Vector" d="M298.91 414.84L298.91 422.77L290.43 422.77L290.43 414.84L298.91 414.84Z" stroke="#073F2C" stroke-opacity="1.000000" stroke-width="1.000000" stroke-linejoin="round"/>
	<path id="Vector" d="M324.62 414.84L316.14 414.84L316.14 422.77L324.62 422.77L324.62 414.84Z" fill="#073F2C" fill-opacity="1.000000" fill-rule="nonzero"/>
	<path id="Vector" d="M324.62 414.84L324.62 422.77L316.14 422.77L316.14 414.84L324.62 414.84Z" stroke="#073F2C" stroke-opacity="1.000000" stroke-width="1.000000" stroke-linejoin="round"/>
	<path id="Vector" d="M332.28 372.71L269.35 372.71L269.35 375.99L332.28 375.99L332.28 372.71Z" fill="#FFFFFF" fill-opacity="1.000000" fill-rule="nonzero"/>
	<path id="Vector" d="M332.28 372.71L332.28 375.99L269.35 375.99L269.35 372.71L332.28 372.71Z" stroke="#073F2C" stroke-opacity="1.000000" stroke-width="1.000000" stroke-linejoin="round"/>
	<path id="Vector" d="M328.72 375.72L274.82 375.72L274.82 380.64L328.72 380.64L328.72 375.72Z" fill="#073F2C" fill-opacity="1.000000" fill-rule="nonzero"/>
	<path id="Vector" d="M328.72 375.72L328.72 380.64L274.82 380.64L274.82 375.72L328.72 375.72Z" stroke="#073F2C" stroke-opacity="1.000000" stroke-width="1.000000" stroke-linejoin="round"/>
	<path id="Vector" d="M272.45 291.76L266.54 298.21L303.65 332.21L309.56 325.76L272.45 291.76Z" fill="#073F2C" fill-opacity="1.000000" fill-rule="nonzero"/>
	<path id="Vector" d="M272.45 291.76L309.56 325.76L303.65 332.21L266.54 298.21L272.45 291.76Z" stroke="#073F2C" stroke-opacity="1.000000" stroke-width="1.000000" stroke-linejoin="round"/>
	<path id="Vector" d="M309.25 343.83L302.32 343.83L302.32 361.7L309.25 361.7L309.25 343.83Z" fill="#073F2C" fill-opacity="1.000000" fill-rule="nonzero"/>
	<path id="Vector" d="M309.25 343.83L309.25 361.7L302.32 361.7L302.32 343.83L309.25 343.83Z" stroke="#073F2C" stroke-opacity="1.000000" stroke-width="1.000000" stroke-linejoin="round"/>
	<path id="Vector" d="M308.5 361.95L303.12 361.95L303.12 364.94L308.5 364.94L308.5 361.95Z" fill="#073F2C" fill-opacity="1.000000" fill-rule="nonzero"/>
	<path id="Vector" d="M308.5 361.95L308.5 364.94L303.12 364.94L303.12 361.95L308.5 361.95Z" stroke="#073F2C" stroke-opacity="1.000000" stroke-width="1.000000" stroke-linejoin="round"/>
	<path id="Vector" d="M315.62 338.38L309.28 341.17L316.47 357.53L322.82 354.74L315.62 338.38Z" fill="#073F2C" fill-opacity="1.000000" fill-rule="nonzero"/>
	<path id="Vector" d="M315.62 338.38L322.82 354.74L316.47 357.53L309.28 341.17L315.62 338.38Z" stroke="#073F2C" stroke-opacity="1.000000" stroke-width="1.000000" stroke-linejoin="round"/>
	<path id="Vector" d="M322.22 355.27L317.3 357.43L318.5 360.17L323.43 358.01L322.22 355.27Z" fill="#073F2C" fill-opacity="1.000000" fill-rule="nonzero"/>
	<path id="Vector" d="M322.22 355.27L323.43 358.01L318.5 360.17L317.3 357.43L322.22 355.27Z" stroke="#073F2C" stroke-opacity="1.000000" stroke-width="1.000000" stroke-linejoin="round"/>
	<path id="Vector" d="M304.1 320.01L296.81 327.29L296.81 348.09L320.15 342.26L320.15 328.4L304.1 320.01Z" fill="#FFFFFF" fill-opacity="1.000000" fill-rule="nonzero"/>
	<path id="Vector" d="M296.81 327.29L296.81 348.09L320.15 342.26L320.15 328.4L304.1 320.01L296.81 327.29Z" stroke="#073F2C" stroke-opacity="1.000000" stroke-width="1.000000" stroke-linejoin="round"/>
	<path id="Vector" d="M320.15 336.84L296.81 342.87L296.81 348.09L320.15 342.26L320.15 336.84Z" fill="#073F2C" fill-opacity="1.000000" fill-rule="nonzero"/>
	<path id="Vector" d="M296.81 342.87L296.81 348.09L320.15 342.26L320.15 336.84L296.81 342.87Z" stroke="#073F2C" stroke-opacity="1.000000" stroke-width="1.000000" stroke-linejoin="round"/>
	<path id="Vector" d="M257.42 395.51C257.42 395.51 268.35 388.22 270.54 385.66C272.74 383.11 280.76 372.89 282.95 372.53C285.14 372.17 292.79 372.17 294.26 372.17C295.72 372.17 300.46 376.55 301.54 377.28C302.64 378.01 303.01 381.29 301.91 381.66C300.82 382.02 294.98 379.11 294.98 379.11L285.13 380.93C285.13 380.93 300.07 384.58 301.18 385.31C302.26 386.04 301.91 389.69 301.91 389.69L297.53 391.88C297.53 391.88 301.91 391.52 301.91 394.07C301.91 396.62 301.91 399.18 300.09 399.18L298.26 399.18C298.26 399.18 302.28 403.19 301.19 404.29C300.1 405.38 298.26 406.11 296.45 406.11C294.63 406.11 290.25 408.3 285.14 410.12C280.03 411.94 272.37 415.23 268.35 415.96C264.35 416.69 258.51 417.42 258.51 417.42C258.51 417.42 258.15 407.94 257.42 405.02C256.69 402.1 255.23 396.63 255.23 396.63L257.42 395.54L257.42 395.51Z" fill="#FFFFFF" fill-opacity="1.000000" fill-rule="nonzero"/>
	<path id="Vector" d="M270.54 385.66C272.74 383.11 280.76 372.89 282.95 372.53C285.14 372.17 292.79 372.17 294.26 372.17C295.72 372.17 300.46 376.55 301.54 377.28C302.64 378.01 303.01 381.29 301.91 381.66C300.82 382.02 294.98 379.11 294.98 379.11L285.13 380.93C285.13 380.93 300.07 384.58 301.18 385.31C302.26 386.04 301.91 389.69 301.91 389.69L297.53 391.88C297.53 391.88 301.91 391.52 301.91 394.07C301.91 396.62 301.91 399.18 300.09 399.18L298.26 399.18C298.26 399.18 302.28 403.19 301.19 404.29C300.1 405.38 298.26 406.11 296.45 406.11C294.63 406.11 290.25 408.3 285.14 410.12C280.03 411.94 272.37 415.23 268.35 415.96C264.35 416.69 258.51 417.42 258.51 417.42C258.51 417.42 258.15 407.94 257.42 405.02C256.69 402.1 255.23 396.63 255.23 396.63L257.42 395.54L257.42 395.51C257.42 395.51 268.35 388.22 270.54 385.66Z" stroke="#073F2C" stroke-opacity="1.000000" stroke-width="1.000000" stroke-linejoin="round"/>
	<path id="Vector" d="M297.54 391.86L289.79 393.26" stroke="#073F2C" stroke-opacity="1.000000" stroke-width="1.000000" stroke-linejoin="round" stroke-linecap="round"/>
	<path id="Vector" d="M298.26 399.15L290.63 400.72" stroke="#073F2C" stroke-opacity="1.000000" stroke-width="1.000000" stroke-linejoin="round" stroke-linecap="round"/>
	<path id="Vector" d="M168.06 320.37C163.32 327.66 157.85 344.44 157.85 352.83C157.85 361.22 150.92 393.31 150.19 404.99C149.46 416.66 149.83 423.96 157.12 425.41C164.41 426.86 187.39 428.69 197.6 427.6C207.81 426.51 219.48 426.51 235.53 426.51C251.58 426.51 259.24 425.42 259.24 425.42C259.24 425.42 261.06 416.3 261.43 409.74C261.79 403.17 259.24 393.33 258.15 393.33C257.06 393.33 239.55 396.25 224.6 398.07C209.65 399.89 202.35 397.34 199.8 396.25C197.25 395.16 196.15 395.16 196.15 395.16L196.15 390.42L191.77 390.06L195.78 364.53C195.78 364.53 199.06 362.34 200.16 359.79C201.25 357.24 202.71 344.11 201.98 336.08C201.25 328.06 193.59 323.31 193.59 323.31M167.64 320.12L167.64 320.09C167.79 319.86 168.09 319.79 168.33 319.95C168.56 320.1 168.63 320.4 168.47 320.64L168.45 320.64L167.64 320.12ZM193.35 323.72L193.32 323.73C193.08 323.58 193.01 323.28 193.16 323.04C193.31 322.8 193.61 322.73 193.85 322.88L193.86 322.91L193.35 323.72Z" fill="#FFFFFF" fill-opacity="1.000000" fill-rule="nonzero"/>
	<path id="Vector" d="M168.06 320.37C163.32 327.66 157.85 344.44 157.85 352.83C157.85 361.22 150.92 393.31 150.19 404.99C149.46 416.66 149.83 423.96 157.12 425.41C164.41 426.86 187.39 428.69 197.6 427.6C207.81 426.51 219.48 426.51 235.53 426.51C251.58 426.51 259.24 425.42 259.24 425.42C259.24 425.42 261.06 416.3 261.43 409.74C261.79 403.17 259.24 393.33 258.15 393.33C257.06 393.33 239.55 396.25 224.6 398.07C209.65 399.89 202.35 397.34 199.8 396.25C197.25 395.16 196.15 395.16 196.15 395.16L196.15 390.42L191.77 390.06L195.78 364.53C195.78 364.53 199.06 362.34 200.16 359.79C201.25 357.24 202.71 344.11 201.98 336.08C201.25 328.06 193.59 323.31 193.59 323.31" stroke="#073F2C" stroke-opacity="1.000000" stroke-width="1.000000" stroke-linejoin="round" stroke-linecap="round"/>
	<path id="Vector" d="M191.04 392.95C191.04 392.95 188.12 398.06 177.18 402.43" stroke="#073F2C" stroke-opacity="1.000000" stroke-width="1.000000" stroke-linejoin="round" stroke-linecap="round"/>
	<path id="Vector" d="M192.13 396.97C192.13 396.97 175.72 409.37 172.07 414.11" stroke="#073F2C" stroke-opacity="1.000000" stroke-width="1.000000" stroke-linejoin="round" stroke-linecap="round"/>
	<path id="Vector" d="M158.58 401.71C158.58 401.71 172.44 401.35 182.29 395.14" stroke="#073F2C" stroke-opacity="1.000000" stroke-width="1.000000" stroke-linejoin="round" stroke-linecap="round"/>
	<path id="Vector" d="M193.96 363.05C193.96 363.05 190.68 357.94 182.29 353.2" stroke="#073F2C" stroke-opacity="1.000000" stroke-width="1.000000" stroke-linejoin="round" stroke-linecap="round"/>
</svg>
