<svg width="13.000000" height="9.000000" viewBox="0 0 13 9" fill="none" xmlns="http://www.w3.org/2000/svg" xmlns:xlink="http://www.w3.org/1999/xlink">
	<desc>
			Created with Pixso.
	</desc>
	<defs/>
	<path id="Vector" d="M-0.88 3.56C-0.88 4.87 -0.32 5.74 0.49 6.16C1.3 6.58 2.28 6.62 3.2 6.62L10.74 6.62L10.74 5.75L3.2 5.75C2.31 5.75 1.46 5.68 0.91 5.39C0.35 5.1 0 4.65 0 3.56L0 -0.38L-0.88 -0.38L-0.88 3.56Z" fill="#808080" fill-opacity="1.000000" fill-rule="nonzero"/>
	<path id="Vector" d="M8.82 4L8.83 8.37C9.5 8.07 10.18 7.73 10.88 7.35C11.57 6.97 12.23 6.58 12.87 6.18C12.23 5.79 11.57 5.4 10.88 5.03C10.2 4.66 9.52 4.32 8.83 4L8.82 4Z" fill="#808080" fill-opacity="1.000000" fill-rule="nonzero"/>
</svg>
