<svg width="24.000000" height="25.000000" viewBox="0 0 24 25" fill="none" xmlns="http://www.w3.org/2000/svg" xmlns:xlink="http://www.w3.org/1999/xlink">
	<desc>
			Created with Pixso.
	</desc>
	<defs/>
	<path id="Vector" d="M16.57 1.21C15.82 0.57 15.29 0.72 14.53 2.13C14.06 3.01 13.32 3.15 12.83 3.14L12.83 3.09C13.43 2.78 13.85 2.14 13.85 1.39C13.85 0.34 13.04 -0.5 12.03 -0.5C11.02 -0.5 10.21 0.34 10.21 1.39C10.21 2.13 10.62 2.77 11.21 3.08L11.21 3.14C10.72 3.16 9.95 3.03 9.46 2.13C8.7 0.72 8.17 0.57 7.42 1.21C6.65 1.86 3.65 5.58 0 5.24C0 5.24 0.72 6.95 2.7 6.57C2.7 6.57 3.75 7.71 5.46 6.91C5.46 6.91 6.35 7.75 7.78 6.99C7.78 6.99 8.82 7.82 9.95 7.1C9.95 7.1 10.5 7.54 11.21 7.47L11.21 11.72C11.18 11.71 11.14 11.71 11.1 11.7C10.48 11.55 9.88 11.42 8.58 11.05C7.34 10.71 5.97 10.16 5.77 9.87C5.78 9.86 5.81 9.84 5.85 9.82C5.96 9.76 6.15 9.7 6.37 9.65C6.83 9.56 7.45 9.51 8.07 9.48C9.32 9.44 9.41 9.5 9.56 9.49C9.71 9.48 10.46 9.47 10.48 8.88C10.51 8.28 10.1 8.24 9.78 8.17C9.27 8.1 9.49 8.12 8.8 8.13C7.66 8.22 4.17 7.93 3.73 9.83C3.73 9.89 3.72 9.92 3.71 9.97C3.86 11.63 7.18 12.36 9.58 12.85C8.77 13.43 8.33 14.18 8.16 15.16C8.07 16.2 8.87 17.19 10.72 18.29C9.32 19.32 8.39 20.29 8.47 21.46C8.6 22.42 9.41 23.69 11 24.5C11.01 24.5 11.01 24.5 11.01 24.5L11.02 24.5C11.02 24.5 9.9 22.73 9.83 21.76C9.76 21.26 9.99 20.56 10.97 19.72C11.05 19.64 11.13 19.57 11.21 19.52L11.21 23.08C11.21 23.09 11.21 23.11 11.21 23.12C11.21 23.58 11.57 23.96 12.02 23.96C12.46 23.96 12.83 23.58 12.83 23.12L12.83 19.66C13.7 20.37 14.07 21.27 14 21.76C13.93 22.73 12.82 24.5 12.82 24.5C12.82 24.5 12.82 24.5 12.83 24.5C14.42 23.69 15.24 22.42 15.36 21.46C15.44 20.29 14.52 19.32 13.12 18.29C14.96 17.19 15.76 16.2 15.67 15.16C15.5 14.19 15.07 13.43 14.25 12.85C16.65 12.36 19.97 11.63 20.12 9.97C20.11 9.92 20.1 9.89 20.1 9.83C19.67 7.93 16.17 8.22 15.03 8.13C14.35 8.12 14.43 8.12 14.11 8.12C13.79 8.12 13.37 8.3 13.36 8.83C13.35 9.36 13.94 9.5 14.28 9.49C14.47 9.49 14.52 9.44 15.76 9.48C16.39 9.51 17 9.56 17.46 9.65C17.68 9.7 17.87 9.76 17.99 9.82C18.02 9.84 18.05 9.86 18.07 9.87C17.86 10.16 16.49 10.71 15.25 11.05C14.11 11.38 13.17 11.6 12.92 11.66C12.89 11.66 12.86 11.66 12.83 11.67L12.83 7.49C13.38 7.56 14.04 7.1 14.04 7.1C15.16 7.82 16.21 6.99 16.21 6.99C17.64 7.75 18.52 6.91 18.52 6.91C20.24 7.71 21.29 6.57 21.29 6.57C23.27 6.95 24 5.24 24 5.24C20.34 5.58 17.34 1.86 16.57 1.21ZM11.21 17C10.91 16.8 10.71 16.72 10.38 16.45C9.96 16.11 9.76 15.67 9.76 15.3C9.76 14.93 9.66 14.26 11.21 13.63L11.21 17ZM14.08 15.36C14.08 15.72 13.86 16.09 13.46 16.45C13.25 16.63 13.04 16.79 12.83 16.91L12.83 13.72C14.16 14.34 14.08 15.02 14.08 15.36Z" fill="#FFFFFF" fill-opacity="1.000000" fill-rule="nonzero"/>
</svg>
